<?xml version="1.0" encoding="utf-8"?>
<!-- Generator: Adobe Illustrator 21.0.1, SVG Export Plug-In . SVG Version: 6.00 Build 0)  -->
<svg version="1.1" id="Layer_1" xmlns="http://www.w3.org/2000/svg" xmlns:xlink="http://www.w3.org/1999/xlink" x="0px" y="0px"
	 viewBox="0 0 100 30" style="enable-background:new 0 0 100 30;" xml:space="preserve">
<style type="text/css">
	.st0{clip-path:url(#SVGID_2_);}
	.st1{clip-path:url(#SVGID_4_);fill:#27BEBA;}
	.st2{clip-path:url(#SVGID_6_);}
	.st3{clip-path:url(#SVGID_8_);fill:#1B98FC;}
	.st4{clip-path:url(#SVGID_10_);}
	.st5{clip-path:url(#SVGID_12_);fill:#FDBB4F;}
	.st6{clip-path:url(#SVGID_14_);}
	.st7{clip-path:url(#SVGID_16_);fill:#F84D53;}
	.st8{clip-path:url(#SVGID_18_);}
	.st9{clip-path:url(#SVGID_20_);fill:#EE45FC;}
	.st10{clip-path:url(#SVGID_22_);}
	.st11{clip-path:url(#SVGID_24_);enable-background:new    ;}
	.st12{clip-path:url(#SVGID_26_);}
	.st13{clip-path:url(#SVGID_28_);}
	.st14{clip-path:url(#SVGID_30_);fill:#2B2E41;}
	.st15{clip-path:url(#SVGID_32_);}
	.st16{clip-path:url(#SVGID_34_);enable-background:new    ;}
	.st17{clip-path:url(#SVGID_36_);}
	.st18{clip-path:url(#SVGID_38_);}
	.st19{clip-path:url(#SVGID_40_);fill:#2B2E41;}
	.st20{clip-path:url(#SVGID_42_);}
	.st21{clip-path:url(#SVGID_44_);enable-background:new    ;}
	.st22{clip-path:url(#SVGID_46_);}
	.st23{clip-path:url(#SVGID_48_);}
	.st24{clip-path:url(#SVGID_50_);fill:#2B2E41;}
	.st25{clip-path:url(#SVGID_52_);}
	.st26{clip-path:url(#SVGID_54_);fill:#2B2E41;}
	.st27{clip-path:url(#SVGID_56_);}
	.st28{clip-path:url(#SVGID_58_);fill:#2B2E41;}
	.st29{clip-path:url(#SVGID_60_);}
	.st30{clip-path:url(#SVGID_62_);fill:#2B2E41;}
	.st31{clip-path:url(#SVGID_64_);}
	.st32{clip-path:url(#SVGID_66_);fill:#2B2E41;}
	.st33{clip-path:url(#SVGID_68_);}
	.st34{clip-path:url(#SVGID_70_);fill:#2B2E41;}
	.st35{clip-path:url(#SVGID_72_);}
	.st36{clip-path:url(#SVGID_74_);fill:#2B2E41;}
	.st37{clip-path:url(#SVGID_76_);}
	.st38{clip-path:url(#SVGID_78_);enable-background:new    ;}
	.st39{clip-path:url(#SVGID_80_);}
	.st40{clip-path:url(#SVGID_82_);}
	.st41{clip-path:url(#SVGID_84_);fill:#2B2E41;}
	.st42{clip-path:url(#SVGID_86_);}
	.st43{clip-path:url(#SVGID_88_);enable-background:new    ;}
	.st44{clip-path:url(#SVGID_90_);}
	.st45{clip-path:url(#SVGID_92_);}
	.st46{clip-path:url(#SVGID_94_);fill:#2B2E41;}
	.st47{clip-path:url(#SVGID_96_);}
	.st48{clip-path:url(#SVGID_98_);enable-background:new    ;}
	.st49{clip-path:url(#SVGID_100_);}
	.st50{clip-path:url(#SVGID_102_);}
	.st51{clip-path:url(#SVGID_104_);fill:#2B2E41;}
	.st52{clip-path:url(#SVGID_106_);}
	.st53{clip-path:url(#SVGID_108_);enable-background:new    ;}
	.st54{clip-path:url(#SVGID_110_);}
	.st55{clip-path:url(#SVGID_112_);}
	.st56{clip-path:url(#SVGID_114_);fill:#2B2E41;}
	.st57{clip-path:url(#SVGID_116_);}
	.st58{clip-path:url(#SVGID_118_);fill:#2B2E41;}
	.st59{clip-path:url(#SVGID_120_);}
	.st60{clip-path:url(#SVGID_122_);fill:#2B2E41;}
	.st61{clip-path:url(#SVGID_124_);}
	.st62{clip-path:url(#SVGID_126_);fill:#2B2E41;}
	.st63{clip-path:url(#SVGID_128_);}
	.st64{clip-path:url(#SVGID_130_);fill:#2B2E41;}
	.st65{clip-path:url(#SVGID_132_);}
	.st66{clip-path:url(#SVGID_134_);fill:#2B2E41;}
	.st67{clip-path:url(#SVGID_136_);}
	.st68{clip-path:url(#SVGID_138_);fill:#2B2E41;}
	.st69{clip-path:url(#SVGID_140_);}
	.st70{clip-path:url(#SVGID_142_);fill:#2B2E41;}
	.st71{clip-path:url(#SVGID_144_);}
	.st72{clip-path:url(#SVGID_146_);fill:#2B2E41;}
	.st73{clip-path:url(#SVGID_148_);}
	.st74{clip-path:url(#SVGID_150_);fill:#2B2E41;}
	.st75{clip-path:url(#SVGID_152_);}
	.st76{clip-path:url(#SVGID_154_);fill:#2B2E41;}
	.st77{clip-path:url(#SVGID_156_);}
	.st78{clip-path:url(#SVGID_158_);fill:#2B2E41;}
	.st79{clip-path:url(#SVGID_160_);}
	.st80{clip-path:url(#SVGID_162_);fill:#2B2E41;}
	.st81{clip-path:url(#SVGID_164_);}
	.st82{clip-path:url(#SVGID_166_);fill:#2B2E41;}
	.st83{clip-path:url(#SVGID_168_);}
	.st84{clip-path:url(#SVGID_170_);fill:#2B2E41;}
	.st85{clip-path:url(#SVGID_172_);}
	.st86{clip-path:url(#SVGID_174_);fill:#2B2E41;}
</style>
<g>
	<g>
		<defs>
			<polygon id="SVGID_1_" points="2.2,3.6 8.8,3.6 4.9,7.8 			"/>
		</defs>
		<clipPath id="SVGID_2_">
			<use xlink:href="#SVGID_1_"  style="overflow:visible;"/>
		</clipPath>
		<g class="st0">
			<defs>
				<rect id="SVGID_3_" x="-98.8" y="-96" width="1216.4" height="865"/>
			</defs>
			<clipPath id="SVGID_4_">
				<use xlink:href="#SVGID_3_"  style="overflow:visible;"/>
			</clipPath>
			<rect x="-2" y="-0.6" class="st1" width="15.1" height="12.6"/>
		</g>
	</g>
	<g>
		<defs>
			<polygon id="SVGID_5_" points="5,8.3 9.6,3.6 15.8,3.6 7.5,12.1 			"/>
		</defs>
		<clipPath id="SVGID_6_">
			<use xlink:href="#SVGID_5_"  style="overflow:visible;"/>
		</clipPath>
		<g class="st2">
			<defs>
				<rect id="SVGID_7_" x="-98.8" y="-96" width="1216.4" height="865"/>
			</defs>
			<clipPath id="SVGID_8_">
				<use xlink:href="#SVGID_7_"  style="overflow:visible;"/>
			</clipPath>
			<rect x="0.7" y="-0.6" class="st3" width="19.3" height="17"/>
		</g>
	</g>
	<g>
		<defs>
			<polygon id="SVGID_9_" points="7.7,12.4 16.8,3.8 16.8,10.5 10.4,16.4 			"/>
		</defs>
		<clipPath id="SVGID_10_">
			<use xlink:href="#SVGID_9_"  style="overflow:visible;"/>
		</clipPath>
		<g class="st4">
			<defs>
				<rect id="SVGID_11_" x="-98.8" y="-96" width="1216.4" height="865"/>
			</defs>
			<clipPath id="SVGID_12_">
				<use xlink:href="#SVGID_11_"  style="overflow:visible;"/>
			</clipPath>
			<rect x="3.5" y="-0.5" class="st5" width="17.6" height="21.1"/>
		</g>
	</g>
	<g>
		<defs>
			<polygon id="SVGID_13_" points="10.6,16.8 16.8,10.7 16.8,17.5 13.5,21 			"/>
		</defs>
		<clipPath id="SVGID_14_">
			<use xlink:href="#SVGID_13_"  style="overflow:visible;"/>
		</clipPath>
		<g class="st6">
			<defs>
				<rect id="SVGID_15_" x="-98.8" y="-96" width="1216.4" height="865"/>
			</defs>
			<clipPath id="SVGID_16_">
				<use xlink:href="#SVGID_15_"  style="overflow:visible;"/>
			</clipPath>
			<rect x="6.4" y="6.4" class="st7" width="14.6" height="18.8"/>
		</g>
	</g>
	<g>
		<defs>
			<polygon id="SVGID_17_" points="13.7,21 16.8,18 16.8,25.5 			"/>
		</defs>
		<clipPath id="SVGID_18_">
			<use xlink:href="#SVGID_17_"  style="overflow:visible;"/>
		</clipPath>
		<g class="st8">
			<defs>
				<rect id="SVGID_19_" x="-98.8" y="-96" width="1216.4" height="865"/>
			</defs>
			<clipPath id="SVGID_20_">
				<use xlink:href="#SVGID_19_"  style="overflow:visible;"/>
			</clipPath>
			<rect x="9.5" y="13.8" class="st9" width="11.5" height="16"/>
		</g>
	</g>
	<g>
		<defs>
			<polygon id="SVGID_21_" points="13.4,3.6 1.8,3.6 7.8,12.5 13.4,12.5 			"/>
		</defs>
		<clipPath id="SVGID_22_">
			<use xlink:href="#SVGID_21_"  style="overflow:visible;"/>
		</clipPath>
		<g class="st10">
			<defs>
				<rect id="SVGID_23_" x="-98.8" y="-96" width="1216.4" height="865"/>
			</defs>
			<clipPath id="SVGID_24_">
				<use xlink:href="#SVGID_23_"  style="overflow:visible;"/>
			</clipPath>
			<g class="st11">
				<g>
					<defs>
						<rect id="SVGID_25_" x="-28.7" y="-29.3" width="42.2" height="42.2"/>
					</defs>
					<clipPath id="SVGID_26_">
						<use xlink:href="#SVGID_25_"  style="overflow:visible;"/>
					</clipPath>
					<g class="st12">
						<defs>
							<polygon id="SVGID_27_" points="-27.3,12.5 -28.3,11.5 12.4,-29 13.4,-28 							"/>
						</defs>
						<clipPath id="SVGID_28_">
							<use xlink:href="#SVGID_27_"  style="overflow:visible;"/>
						</clipPath>
						<g class="st13">
							<defs>
								<rect id="SVGID_29_" x="1.7" y="2.8" width="11.8" height="10.1"/>
							</defs>
							<clipPath id="SVGID_30_">
								<use xlink:href="#SVGID_29_"  style="overflow:visible;"/>
							</clipPath>
							<rect x="-32.5" y="-33.2" class="st14" width="50.1" height="50"/>
						</g>
					</g>
				</g>
			</g>
		</g>
	</g>
	<g>
		<defs>
			<polygon id="SVGID_31_" points="17,3.6 1.8,3.6 10.2,16.1 17,16.1 			"/>
		</defs>
		<clipPath id="SVGID_32_">
			<use xlink:href="#SVGID_31_"  style="overflow:visible;"/>
		</clipPath>
		<g class="st15">
			<defs>
				<rect id="SVGID_33_" x="-98.8" y="-96" width="1216.4" height="865"/>
			</defs>
			<clipPath id="SVGID_34_">
				<use xlink:href="#SVGID_33_"  style="overflow:visible;"/>
			</clipPath>
			<g class="st16">
				<g>
					<defs>
						<rect id="SVGID_35_" x="-25.3" y="-25.9" width="43.1" height="42.2"/>
					</defs>
					<clipPath id="SVGID_36_">
						<use xlink:href="#SVGID_35_"  style="overflow:visible;"/>
					</clipPath>
					<g class="st17">
						<defs>
							<polygon id="SVGID_37_" points="-23.7,16.1 -24.7,15.1 16,-25.4 17,-24.5 							"/>
						</defs>
						<clipPath id="SVGID_38_">
							<use xlink:href="#SVGID_37_"  style="overflow:visible;"/>
						</clipPath>
						<g class="st18">
							<defs>
								<rect id="SVGID_39_" x="1.7" y="2.8" width="16" height="13.5"/>
							</defs>
							<clipPath id="SVGID_40_">
								<use xlink:href="#SVGID_39_"  style="overflow:visible;"/>
							</clipPath>
							<rect x="-28.9" y="-29.7" class="st19" width="50.1" height="50"/>
						</g>
					</g>
				</g>
			</g>
		</g>
	</g>
	<g>
		<defs>
			<polygon id="SVGID_41_" points="17,19.7 17,3.6 17,3.6 1.8,3.6 12.5,19.7 			"/>
		</defs>
		<clipPath id="SVGID_42_">
			<use xlink:href="#SVGID_41_"  style="overflow:visible;"/>
		</clipPath>
		<g class="st20">
			<defs>
				<rect id="SVGID_43_" x="-98.8" y="-96" width="1216.4" height="865"/>
			</defs>
			<clipPath id="SVGID_44_">
				<use xlink:href="#SVGID_43_"  style="overflow:visible;"/>
			</clipPath>
			<g class="st21">
				<g>
					<defs>
						<rect id="SVGID_45_" x="-21.9" y="-22.5" width="43.1" height="42.2"/>
					</defs>
					<clipPath id="SVGID_46_">
						<use xlink:href="#SVGID_45_"  style="overflow:visible;"/>
					</clipPath>
					<g class="st22">
						<defs>
							<polygon id="SVGID_47_" points="-20.1,19.7 -21.1,18.7 19.6,-21.9 20.6,-20.9 							"/>
						</defs>
						<clipPath id="SVGID_48_">
							<use xlink:href="#SVGID_47_"  style="overflow:visible;"/>
						</clipPath>
						<g class="st23">
							<defs>
								<rect id="SVGID_49_" x="1.7" y="2.8" width="16" height="16.9"/>
							</defs>
							<clipPath id="SVGID_50_">
								<use xlink:href="#SVGID_49_"  style="overflow:visible;"/>
							</clipPath>
							<rect x="-25.3" y="-26.1" class="st24" width="50.1" height="50"/>
						</g>
					</g>
				</g>
			</g>
		</g>
	</g>
	<g>
		<defs>
			<polygon id="SVGID_51_" points="2.4,4.4 3.2,3.6 1.8,3.6 			"/>
		</defs>
		<clipPath id="SVGID_52_">
			<use xlink:href="#SVGID_51_"  style="overflow:visible;"/>
		</clipPath>
		<g class="st25">
			<defs>
				<rect id="SVGID_53_" x="-98.8" y="-96" width="1216.4" height="865"/>
			</defs>
			<clipPath id="SVGID_54_">
				<use xlink:href="#SVGID_53_"  style="overflow:visible;"/>
			</clipPath>
			<rect x="-2.4" y="-0.6" class="st26" width="9.8" height="9.3"/>
		</g>
	</g>
	<g>
		<defs>
			<polygon id="SVGID_55_" points="4.4,7.5 5.2,8.7 10.4,3.6 8.4,3.6 			"/>
		</defs>
		<clipPath id="SVGID_56_">
			<use xlink:href="#SVGID_55_"  style="overflow:visible;"/>
		</clipPath>
		<g class="st27">
			<defs>
				<rect id="SVGID_57_" x="-98.8" y="-96" width="1216.4" height="865"/>
			</defs>
			<clipPath id="SVGID_58_">
				<use xlink:href="#SVGID_57_"  style="overflow:visible;"/>
			</clipPath>
			<rect x="0.2" y="-0.6" class="st28" width="14.4" height="13.6"/>
		</g>
	</g>
	<g>
		<defs>
			<path id="SVGID_59_" d="M7.3,11.8L8.1,13L17,4.1V3.6h-1.5L7.3,11.8z M17,3.6L17,3.6L17,3.6z"/>
		</defs>
		<clipPath id="SVGID_60_">
			<use xlink:href="#SVGID_59_"  style="overflow:visible;"/>
		</clipPath>
		<g class="st29">
			<defs>
				<rect id="SVGID_61_" x="-98.8" y="-96" width="1216.4" height="865"/>
			</defs>
			<clipPath id="SVGID_62_">
				<use xlink:href="#SVGID_61_"  style="overflow:visible;"/>
			</clipPath>
			<rect x="3.1" y="-0.6" class="st30" width="18.2" height="17.9"/>
		</g>
	</g>
	<g>
		<defs>
			<polygon id="SVGID_63_" points="10.2,16.1 11,17.3 17,11.3 17,9.3 			"/>
		</defs>
		<clipPath id="SVGID_64_">
			<use xlink:href="#SVGID_63_"  style="overflow:visible;"/>
		</clipPath>
		<g class="st31">
			<defs>
				<rect id="SVGID_65_" x="-98.8" y="-96" width="1216.4" height="865"/>
			</defs>
			<clipPath id="SVGID_66_">
				<use xlink:href="#SVGID_65_"  style="overflow:visible;"/>
			</clipPath>
			<rect x="6" y="5.1" class="st32" width="15.3" height="16.4"/>
		</g>
	</g>
	<g>
		<defs>
			<polygon id="SVGID_67_" points="13.1,20.4 13.8,21.6 17,18.4 17,16.5 			"/>
		</defs>
		<clipPath id="SVGID_68_">
			<use xlink:href="#SVGID_67_"  style="overflow:visible;"/>
		</clipPath>
		<g class="st33">
			<defs>
				<rect id="SVGID_69_" x="-98.8" y="-96" width="1216.4" height="865"/>
			</defs>
			<clipPath id="SVGID_70_">
				<use xlink:href="#SVGID_69_"  style="overflow:visible;"/>
			</clipPath>
			<rect x="8.8" y="12.2" class="st34" width="12.4" height="13.6"/>
		</g>
	</g>
	<g>
		<defs>
			<polygon id="SVGID_71_" points="15.9,24.7 16.7,25.9 17,25.6 17,23.6 			"/>
		</defs>
		<clipPath id="SVGID_72_">
			<use xlink:href="#SVGID_71_"  style="overflow:visible;"/>
		</clipPath>
		<g class="st35">
			<defs>
				<rect id="SVGID_73_" x="-98.8" y="-96" width="1216.4" height="865"/>
			</defs>
			<clipPath id="SVGID_74_">
				<use xlink:href="#SVGID_73_"  style="overflow:visible;"/>
			</clipPath>
			<rect x="11.7" y="19.4" class="st36" width="9.6" height="10.7"/>
		</g>
	</g>
	<g>
		<defs>
			<polygon id="SVGID_75_" points="4,3.6 17,3.6 17,3.6 17,26.4 4,6.9 			"/>
		</defs>
		<clipPath id="SVGID_76_">
			<use xlink:href="#SVGID_75_"  style="overflow:visible;"/>
		</clipPath>
		<g class="st37">
			<defs>
				<rect id="SVGID_77_" x="-98.8" y="-96" width="1216.4" height="865"/>
			</defs>
			<clipPath id="SVGID_78_">
				<use xlink:href="#SVGID_77_"  style="overflow:visible;"/>
			</clipPath>
			<g class="st38">
				<g>
					<defs>
						<rect id="SVGID_79_" x="3.4" y="2.8" width="43.1" height="42.2"/>
					</defs>
					<clipPath id="SVGID_80_">
						<use xlink:href="#SVGID_79_"  style="overflow:visible;"/>
					</clipPath>
					<g class="st39">
						<defs>
							<polygon id="SVGID_81_" points="5,44.7 4,43.7 44.7,3.2 45.7,4.2 							"/>
						</defs>
						<clipPath id="SVGID_82_">
							<use xlink:href="#SVGID_81_"  style="overflow:visible;"/>
						</clipPath>
						<g class="st40">
							<defs>
								<rect id="SVGID_83_" x="3.4" y="2.8" width="14.4" height="23.7"/>
							</defs>
							<clipPath id="SVGID_84_">
								<use xlink:href="#SVGID_83_"  style="overflow:visible;"/>
							</clipPath>
							<rect x="-0.2" y="-1" class="st41" width="50.1" height="50"/>
						</g>
					</g>
				</g>
			</g>
		</g>
	</g>
	<g>
		<defs>
			<polygon id="SVGID_85_" points="17,6.8 17,26.4 7.6,12.3 7.6,6.8 			"/>
		</defs>
		<clipPath id="SVGID_86_">
			<use xlink:href="#SVGID_85_"  style="overflow:visible;"/>
		</clipPath>
		<g class="st42">
			<defs>
				<rect id="SVGID_87_" x="-98.8" y="-96" width="1216.4" height="865"/>
			</defs>
			<clipPath id="SVGID_88_">
				<use xlink:href="#SVGID_87_"  style="overflow:visible;"/>
			</clipPath>
			<g class="st43">
				<g>
					<defs>
						<rect id="SVGID_89_" x="6.8" y="6.2" width="43.1" height="42.2"/>
					</defs>
					<clipPath id="SVGID_90_">
						<use xlink:href="#SVGID_89_"  style="overflow:visible;"/>
					</clipPath>
					<g class="st44">
						<defs>
							<polygon id="SVGID_91_" points="8.6,48.3 7.6,47.3 48.3,6.8 49.3,7.7 							"/>
						</defs>
						<clipPath id="SVGID_92_">
							<use xlink:href="#SVGID_91_"  style="overflow:visible;"/>
						</clipPath>
						<g class="st45">
							<defs>
								<rect id="SVGID_93_" x="6.8" y="6.2" width="11" height="20.3"/>
							</defs>
							<clipPath id="SVGID_94_">
								<use xlink:href="#SVGID_93_"  style="overflow:visible;"/>
							</clipPath>
							<rect x="3.4" y="2.5" class="st46" width="50.1" height="50"/>
						</g>
					</g>
				</g>
			</g>
		</g>
	</g>
	<g>
		<defs>
			<polygon id="SVGID_95_" points="17,10.3 17,26.4 11.2,17.7 11.2,10.3 			"/>
		</defs>
		<clipPath id="SVGID_96_">
			<use xlink:href="#SVGID_95_"  style="overflow:visible;"/>
		</clipPath>
		<g class="st47">
			<defs>
				<rect id="SVGID_97_" x="-98.8" y="-96" width="1216.4" height="865"/>
			</defs>
			<clipPath id="SVGID_98_">
				<use xlink:href="#SVGID_97_"  style="overflow:visible;"/>
			</clipPath>
			<g class="st48">
				<g>
					<defs>
						<rect id="SVGID_99_" x="11" y="9.6" width="42.2" height="43.1"/>
					</defs>
					<clipPath id="SVGID_100_">
						<use xlink:href="#SVGID_99_"  style="overflow:visible;"/>
					</clipPath>
					<g class="st49">
						<defs>
							<polygon id="SVGID_101_" points="12.2,51.9 11.2,50.9 51.9,10.3 52.9,11.3 							"/>
						</defs>
						<clipPath id="SVGID_102_">
							<use xlink:href="#SVGID_101_"  style="overflow:visible;"/>
						</clipPath>
						<g class="st50">
							<defs>
								<rect id="SVGID_103_" x="11" y="9.6" width="6.8" height="16.9"/>
							</defs>
							<clipPath id="SVGID_104_">
								<use xlink:href="#SVGID_103_"  style="overflow:visible;"/>
							</clipPath>
							<rect x="7" y="6.1" class="st51" width="50.1" height="50"/>
						</g>
					</g>
				</g>
			</g>
		</g>
	</g>
	<g>
		<defs>
			<polygon id="SVGID_105_" points="17,13.9 17,26.4 14.8,23.1 14.8,13.9 			"/>
		</defs>
		<clipPath id="SVGID_106_">
			<use xlink:href="#SVGID_105_"  style="overflow:visible;"/>
		</clipPath>
		<g class="st52">
			<defs>
				<rect id="SVGID_107_" x="-98.8" y="-96" width="1216.4" height="865"/>
			</defs>
			<clipPath id="SVGID_108_">
				<use xlink:href="#SVGID_107_"  style="overflow:visible;"/>
			</clipPath>
			<g class="st53">
				<g>
					<defs>
						<rect id="SVGID_109_" x="14.4" y="13.8" width="42.2" height="42.2"/>
					</defs>
					<clipPath id="SVGID_110_">
						<use xlink:href="#SVGID_109_"  style="overflow:visible;"/>
					</clipPath>
					<g class="st54">
						<defs>
							<polygon id="SVGID_111_" points="15.8,55.4 14.8,54.5 55.5,13.9 56.5,14.9 							"/>
						</defs>
						<clipPath id="SVGID_112_">
							<use xlink:href="#SVGID_111_"  style="overflow:visible;"/>
						</clipPath>
						<g class="st55">
							<defs>
								<rect id="SVGID_113_" x="14.4" y="13.8" width="3.4" height="12.7"/>
							</defs>
							<clipPath id="SVGID_114_">
								<use xlink:href="#SVGID_113_"  style="overflow:visible;"/>
							</clipPath>
							<rect x="10.6" y="9.7" class="st56" width="50.1" height="50"/>
						</g>
					</g>
				</g>
			</g>
		</g>
	</g>
	<g>
		<defs>
			<polygon id="SVGID_115_" points="22.4,14.3 30.4,14.3 30.4,15.1 23.2,15.1 23.2,19.4 29.1,19.4 29.1,20.2 23.2,20.2 23.2,25.4 
				30.6,25.4 30.6,26.2 22.4,26.2 			"/>
		</defs>
		<clipPath id="SVGID_116_">
			<use xlink:href="#SVGID_115_"  style="overflow:visible;"/>
		</clipPath>
		<g class="st57">
			<defs>
				<rect id="SVGID_117_" x="-98.8" y="-96" width="1216.4" height="865"/>
			</defs>
			<clipPath id="SVGID_118_">
				<use xlink:href="#SVGID_117_"  style="overflow:visible;"/>
			</clipPath>
			<rect x="18.1" y="10.1" class="st58" width="16.7" height="20.3"/>
		</g>
	</g>
	<g>
		<defs>
			<path id="SVGID_119_" d="M31,26.5h-9V14h8.7v1.5h-7.2v3.6h5.9v1.5h-5.9v4.5H31V26.5z M22.7,25.9h7.6v-0.1h-7.4v-5.9h5.9v-0.1
				h-5.9v-5H30v-0.1h-7.3V25.9z"/>
		</defs>
		<clipPath id="SVGID_120_">
			<use xlink:href="#SVGID_119_"  style="overflow:visible;"/>
		</clipPath>
		<g class="st59">
			<defs>
				<rect id="SVGID_121_" x="-98.8" y="-96" width="1216.4" height="865"/>
			</defs>
			<clipPath id="SVGID_122_">
				<use xlink:href="#SVGID_121_"  style="overflow:visible;"/>
			</clipPath>
			<rect x="17.8" y="9.7" class="st60" width="17.4" height="21"/>
		</g>
	</g>
	<g>
		<defs>
			<path id="SVGID_123_" d="M33.2,14.3h5.3c2.3,0,3.7,1.3,3.7,3.1c0,1.7-1,2.9-3,3.1l3.9,5.6h-1l-3.9-5.6h-4.2v5.6h-0.9V14.3z
				 M38.5,19.9c1.8,0,2.9-0.8,2.9-2.4c0-1.5-1.1-2.4-2.9-2.4h-4.4v4.8H38.5z"/>
		</defs>
		<clipPath id="SVGID_124_">
			<use xlink:href="#SVGID_123_"  style="overflow:visible;"/>
		</clipPath>
		<g class="st61">
			<defs>
				<rect id="SVGID_125_" x="-98.8" y="-96" width="1216.4" height="865"/>
			</defs>
			<clipPath id="SVGID_126_">
				<use xlink:href="#SVGID_125_"  style="overflow:visible;"/>
			</clipPath>
			<rect x="29" y="10.1" class="st62" width="18.4" height="20.3"/>
		</g>
	</g>
	<g>
		<defs>
			<path id="SVGID_127_" d="M43.8,26.5H42L38.1,21h-3.7v5.6h-1.5V14h5.7c2.4,0,4,1.4,4,3.5c0,1.7-1,3-2.7,3.4L43.8,26.5z M42.3,25.9
				h0.1l-3.9-5.6l0.6-0.1c1.7-0.2,2.6-1.2,2.6-2.8c0-1.8-1.2-2.8-3.3-2.8h-5v11.2h0.2v-5.6h4.7L42.3,25.9z M38.5,20.2h-4.7v-5.5h4.7
				c2,0,3.2,1,3.2,2.7C41.7,19.2,40.5,20.2,38.5,20.2z M34.4,19.5h4c1.1,0,2.5-0.4,2.5-2.1c0-1.8-1.6-2-2.5-2h-4V19.5z"/>
		</defs>
		<clipPath id="SVGID_128_">
			<use xlink:href="#SVGID_127_"  style="overflow:visible;"/>
		</clipPath>
		<g class="st63">
			<defs>
				<rect id="SVGID_129_" x="-98.8" y="-96" width="1216.4" height="865"/>
			</defs>
			<clipPath id="SVGID_130_">
				<use xlink:href="#SVGID_129_"  style="overflow:visible;"/>
			</clipPath>
			<rect x="28.7" y="9.7" class="st64" width="19.4" height="21"/>
		</g>
	</g>
	<g>
		<defs>
			<polygon id="SVGID_131_" points="45.8,14.3 46.6,14.3 51.2,20.3 55.8,14.3 56.7,14.3 56.7,26.2 55.8,26.2 55.8,15.6 51.5,21.3 
				51,21.3 46.6,15.6 46.6,26.2 45.8,26.2 			"/>
		</defs>
		<clipPath id="SVGID_132_">
			<use xlink:href="#SVGID_131_"  style="overflow:visible;"/>
		</clipPath>
		<g class="st65">
			<defs>
				<rect id="SVGID_133_" x="-98.8" y="-96" width="1216.4" height="865"/>
			</defs>
			<clipPath id="SVGID_134_">
				<use xlink:href="#SVGID_133_"  style="overflow:visible;"/>
			</clipPath>
			<rect x="41.6" y="10.1" class="st66" width="19.3" height="20.3"/>
		</g>
	</g>
	<g>
		<defs>
			<path id="SVGID_135_" d="M57,26.5h-1.5v-9.9l-3.8,5h-0.9l-3.8-5v9.9h-1.5V14h1.4l4.4,5.8l4.4-5.8H57V26.5z M56.2,25.9h0.2V14.7
				h-0.2V25.9z M46.1,25.9h0.2V14.7h-0.2V25.9z M51.1,20.9h0.2l4.8-6.3H56l-4.8,6.2l-4.8-6.2h-0.1L51.1,20.9z"/>
		</defs>
		<clipPath id="SVGID_136_">
			<use xlink:href="#SVGID_135_"  style="overflow:visible;"/>
		</clipPath>
		<g class="st67">
			<defs>
				<rect id="SVGID_137_" x="-98.8" y="-96" width="1216.4" height="865"/>
			</defs>
			<clipPath id="SVGID_138_">
				<use xlink:href="#SVGID_137_"  style="overflow:visible;"/>
			</clipPath>
			<rect x="41.2" y="9.7" class="st68" width="20" height="21"/>
		</g>
	</g>
	<g>
		<defs>
			<rect id="SVGID_139_" x="60.3" y="14.3" width="0.9" height="11.9"/>
		</defs>
		<clipPath id="SVGID_140_">
			<use xlink:href="#SVGID_139_"  style="overflow:visible;"/>
		</clipPath>
		<g class="st69">
			<defs>
				<rect id="SVGID_141_" x="-98.8" y="-96" width="1216.4" height="865"/>
			</defs>
			<clipPath id="SVGID_142_">
				<use xlink:href="#SVGID_141_"  style="overflow:visible;"/>
			</clipPath>
			<rect x="56.1" y="10.1" class="st70" width="9.3" height="20.3"/>
		</g>
	</g>
	<g>
		<defs>
			<path id="SVGID_143_" d="M60,26.5h1.5V14H60V26.5z M60.7,25.9h0.2V14.7h-0.2V25.9z"/>
		</defs>
		<clipPath id="SVGID_144_">
			<use xlink:href="#SVGID_143_"  style="overflow:visible;"/>
		</clipPath>
		<g class="st71">
			<defs>
				<rect id="SVGID_145_" x="-98.8" y="-96" width="1216.4" height="865"/>
			</defs>
			<clipPath id="SVGID_146_">
				<use xlink:href="#SVGID_145_"  style="overflow:visible;"/>
			</clipPath>
			<rect x="55.8" y="9.7" class="st72" width="10" height="21"/>
		</g>
	</g>
	<g>
		<defs>
			<polygon id="SVGID_147_" points="64.9,14.3 65.6,14.3 73.7,24.7 73.7,14.3 74.5,14.3 74.5,26.2 73.8,26.2 65.7,15.8 65.7,26.2 
				64.9,26.2 			"/>
		</defs>
		<clipPath id="SVGID_148_">
			<use xlink:href="#SVGID_147_"  style="overflow:visible;"/>
		</clipPath>
		<g class="st73">
			<defs>
				<rect id="SVGID_149_" x="-98.8" y="-96" width="1216.4" height="865"/>
			</defs>
			<clipPath id="SVGID_150_">
				<use xlink:href="#SVGID_149_"  style="overflow:visible;"/>
			</clipPath>
			<rect x="60.6" y="10.1" class="st74" width="18.1" height="20.3"/>
		</g>
	</g>
	<g>
		<defs>
			<path id="SVGID_151_" d="M74.9,26.5h-1.3l-7.6-9.8v9.8h-1.5V14h1.3l7.5,9.7V14h1.5V26.5z M73.9,25.9h0.2V14.7H74v11.1l-8.6-11.1
				h-0.2v11.2h0.2V14.8L73.9,25.9z"/>
		</defs>
		<clipPath id="SVGID_152_">
			<use xlink:href="#SVGID_151_"  style="overflow:visible;"/>
		</clipPath>
		<g class="st75">
			<defs>
				<rect id="SVGID_153_" x="-98.8" y="-96" width="1216.4" height="865"/>
			</defs>
			<clipPath id="SVGID_154_">
				<use xlink:href="#SVGID_153_"  style="overflow:visible;"/>
			</clipPath>
			<rect x="60.3" y="9.7" class="st76" width="18.8" height="21"/>
		</g>
	</g>
	<g>
		<defs>
			<path id="SVGID_155_" d="M82.3,14.2h0.8l5.4,12h-0.9L86,22.7h-6.7l-1.6,3.5h-0.9L82.3,14.2z M85.7,22l-3-6.6l-3,6.6H85.7z"/>
		</defs>
		<clipPath id="SVGID_156_">
			<use xlink:href="#SVGID_155_"  style="overflow:visible;"/>
		</clipPath>
		<g class="st77">
			<defs>
				<rect id="SVGID_157_" x="-98.8" y="-96" width="1216.4" height="865"/>
			</defs>
			<clipPath id="SVGID_158_">
				<use xlink:href="#SVGID_157_"  style="overflow:visible;"/>
			</clipPath>
			<rect x="72.6" y="10" class="st78" width="20" height="20.4"/>
		</g>
	</g>
	<g>
		<defs>
			<path id="SVGID_159_" d="M89,26.5h-1.6l-1.6-3.5h-6.2L78,26.5h-1.6L82,13.9h1.2L89,26.5z M87.8,25.9h0.1l-5.1-11.3h-0.1l3.5,7.7
				h-7.1l3.5-7.7h-0.1l-5.1,11.3h0.1l1.6-3.5h7.1L87.8,25.9z M80.2,21.6h5l-2.5-5.5L80.2,21.6z"/>
		</defs>
		<clipPath id="SVGID_160_">
			<use xlink:href="#SVGID_159_"  style="overflow:visible;"/>
		</clipPath>
		<g class="st79">
			<defs>
				<rect id="SVGID_161_" x="-98.8" y="-96" width="1216.4" height="865"/>
			</defs>
			<clipPath id="SVGID_162_">
				<use xlink:href="#SVGID_161_"  style="overflow:visible;"/>
			</clipPath>
			<rect x="72.1" y="9.7" class="st80" width="21.1" height="21.1"/>
		</g>
	</g>
	<g>
		<defs>
			<polygon id="SVGID_163_" points="90.8,14.3 91.6,14.3 91.6,25.4 98.5,25.4 98.5,26.2 90.8,26.2 			"/>
		</defs>
		<clipPath id="SVGID_164_">
			<use xlink:href="#SVGID_163_"  style="overflow:visible;"/>
		</clipPath>
		<g class="st81">
			<defs>
				<rect id="SVGID_165_" x="-98.8" y="-96" width="1216.4" height="865"/>
			</defs>
			<clipPath id="SVGID_166_">
				<use xlink:href="#SVGID_165_"  style="overflow:visible;"/>
			</clipPath>
			<rect x="86.5" y="10.1" class="st82" width="16.2" height="20.3"/>
		</g>
	</g>
	<g>
		<defs>
			<path id="SVGID_167_" d="M98.9,26.5h-8.5V14H92v11.1h6.9V26.5z M91.1,25.9h7.1v-0.1h-6.9V14.7h-0.2V25.9z"/>
		</defs>
		<clipPath id="SVGID_168_">
			<use xlink:href="#SVGID_167_"  style="overflow:visible;"/>
		</clipPath>
		<g class="st83">
			<defs>
				<rect id="SVGID_169_" x="-98.8" y="-96" width="1216.4" height="865"/>
			</defs>
			<clipPath id="SVGID_170_">
				<use xlink:href="#SVGID_169_"  style="overflow:visible;"/>
			</clipPath>
			<rect x="86.2" y="9.7" class="st84" width="16.9" height="21"/>
		</g>
	</g>
	<g>
		<defs>
			<path id="SVGID_171_" d="M17,27.1c-0.2,0-0.4-0.1-0.6-0.3L1.2,4c-0.1-0.2-0.2-0.5,0-0.7c0.1-0.2,0.4-0.4,0.6-0.4l30.4,0
				c0.3,0,0.5,0.1,0.6,0.4C33,3.5,33,3.8,32.8,4l-4.6,6.9c-0.2,0.3-0.6,0.4-1,0.2c-0.3-0.2-0.4-0.6-0.2-1L31,4.3l-13.2,0v22.1
				c0,0.3-0.2,0.6-0.5,0.7C17.2,27.1,17.1,27.1,17,27.1z M3.1,4.3l13.2,19.8V4.3L3.1,4.3z"/>
		</defs>
		<clipPath id="SVGID_172_">
			<use xlink:href="#SVGID_171_"  style="overflow:visible;"/>
		</clipPath>
		<g class="st85">
			<defs>
				<rect id="SVGID_173_" x="-98.8" y="-96" width="1216.4" height="865"/>
			</defs>
			<clipPath id="SVGID_174_">
				<use xlink:href="#SVGID_173_"  style="overflow:visible;"/>
			</clipPath>
			<rect x="-3.1" y="-1.3" class="st86" width="40.3" height="32.6"/>
		</g>
	</g>
</g>
</svg>
