<svg id="Layer_1" data-name="Layer 1" xmlns="http://www.w3.org/2000/svg" xmlns:xlink="http://www.w3.org/1999/xlink" viewBox="0 0 50 50"><defs><style>.cls-1,.cls-2{fill:none;}.cls-1{clip-rule:evenodd;}.cls-3{clip-path:url(#clip-path);}.cls-4{clip-path:url(#clip-path-2);}.cls-5{clip-path:url(#clip-path-3);}.cls-6{clip-path:url(#clip-path-4);}.cls-7{clip-path:url(#clip-path-5);}.cls-8{clip-path:url(#clip-path-6);}.cls-9{clip-path:url(#clip-path-7);}.cls-10{clip-path:url(#clip-path-8);}.cls-11{clip-path:url(#clip-path-9);}.cls-12{clip-path:url(#clip-path-10);}.cls-13{clip-path:url(#clip-path-11);}.cls-14{clip-path:url(#clip-path-12);}.cls-15{clip-path:url(#clip-path-13);}.cls-16{clip-path:url(#clip-path-14);}.cls-17{clip-path:url(#clip-path-15);}.cls-18{clip-path:url(#clip-path-16);}.cls-19{clip-path:url(#clip-path-17);}.cls-20{clip-path:url(#clip-path-18);}.cls-21{clip-path:url(#clip-path-19);}.cls-22{clip-path:url(#clip-path-20);}.cls-23{clip-path:url(#clip-path-21);}.cls-24{clip-path:url(#clip-path-22);}.cls-25{clip-path:url(#clip-path-23);}.cls-26{clip-path:url(#clip-path-24);}.cls-27{clip-path:url(#clip-path-25);}.cls-28{clip-path:url(#clip-path-26);}.cls-29{clip-path:url(#clip-path-27);}.cls-30{clip-path:url(#clip-path-28);}.cls-31{clip-path:url(#clip-path-29);}.cls-32{clip-path:url(#clip-path-30);}.cls-33{clip-path:url(#clip-path-31);}.cls-34{clip-path:url(#clip-path-32);}.cls-35{isolation:isolate;}.cls-36{clip-path:url(#clip-path-33);}.cls-37{clip-path:url(#clip-path-34);}.cls-38{clip-path:url(#clip-path-35);}.cls-39{fill:#a5dafd;}.cls-40{clip-path:url(#clip-path-36);}.cls-41{clip-path:url(#clip-path-38);}.cls-42{clip-path:url(#clip-path-40);}.cls-43{clip-path:url(#clip-path-41);}.cls-44{clip-path:url(#clip-path-42);}.cls-45{clip-path:url(#clip-path-43);}.cls-46{clip-path:url(#clip-path-44);}.cls-47{clip-path:url(#clip-path-45);}.cls-48{clip-path:url(#clip-path-46);}.cls-49{clip-path:url(#clip-path-47);}.cls-50{clip-path:url(#clip-path-48);}.cls-51{clip-path:url(#clip-path-49);}.cls-52{clip-path:url(#clip-path-50);}.cls-53{clip-path:url(#clip-path-51);}.cls-54{clip-path:url(#clip-path-52);}.cls-55{clip-path:url(#clip-path-53);}.cls-56{clip-path:url(#clip-path-54);}.cls-57{clip-path:url(#clip-path-55);}.cls-58{clip-path:url(#clip-path-56);}.cls-59{clip-path:url(#clip-path-57);}.cls-60{clip-path:url(#clip-path-58);}.cls-61{clip-path:url(#clip-path-59);}.cls-62{clip-path:url(#clip-path-60);}.cls-63{clip-path:url(#clip-path-61);}</style><clipPath id="clip-path"><path class="cls-1" d="M-304.87,80.74a2.45,2.45,0,0,1,2.5-2.5,2.45,2.45,0,0,1,2.5,2.5v2.5a2.45,2.45,0,0,1-2.5,2.5,2.45,2.45,0,0,1-2.5-2.5Z"/></clipPath><clipPath id="clip-path-2"><path class="cls-1" d="M-282.37,98.24a2.45,2.45,0,0,1,2.5,2.5,2.45,2.45,0,0,1-2.5,2.5h-2.5a2.45,2.45,0,0,1-2.5-2.5,2.45,2.45,0,0,1,2.5-2.5Z"/></clipPath><clipPath id="clip-path-3"><path class="cls-1" d="M-319.87,98.24a2.45,2.45,0,0,1,2.5,2.5,2.45,2.45,0,0,1-2.5,2.5h-2.5a2.45,2.45,0,0,1-2.5-2.5,2.45,2.45,0,0,1,2.5-2.5Z"/></clipPath><clipPath id="clip-path-4"><path class="cls-1" d="M-313.47,87.36a2.45,2.45,0,0,1,0,3.53,2.45,2.45,0,0,1-3.54,0l-1.77-1.77a2.45,2.45,0,0,1,0-3.54,2.45,2.45,0,0,1,3.54,0Z"/></clipPath><clipPath id="clip-path-5"><path class="cls-1" d="M-287.22,113.61a2.45,2.45,0,0,1,0,3.53,2.45,2.45,0,0,1-3.53,0l-1.77-1.77a2.45,2.45,0,0,1,0-3.53,2.45,2.45,0,0,1,3.53,0Z"/></clipPath><clipPath id="clip-path-6"><path class="cls-1" d="M-287.74,90.89a2.45,2.45,0,0,1-3.53,0,2.45,2.45,0,0,1,0-3.53l1.77-1.77a2.45,2.45,0,0,1,3.53,0,2.45,2.45,0,0,1,0,3.53Z"/></clipPath><clipPath id="clip-path-7"><path class="cls-1" d="M-314,117.14a2.45,2.45,0,0,1-3.54,0,2.45,2.45,0,0,1,0-3.53l1.77-1.77a2.45,2.45,0,0,1,3.53,0,2.45,2.45,0,0,1,0,3.54Z"/></clipPath><clipPath id="clip-path-8"><path class="cls-1" d="M-304.87,118.24a2.45,2.45,0,0,1,2.5-2.5,2.45,2.45,0,0,1,2.5,2.5v2.5a2.45,2.45,0,0,1-2.5,2.5,2.45,2.45,0,0,1-2.5-2.5Z"/></clipPath><clipPath id="clip-path-9"><path class="cls-1" d="M-289.87,100.74a12.5,12.5,0,0,0-12.5-12.5,12.5,12.5,0,0,0-12.5,12.5,12.5,12.5,0,0,0,12.5,12.5,12.5,12.5,0,0,0,12.5-12.5"/></clipPath><clipPath id="clip-path-10"><path class="cls-1" d="M-302.79-20.15-314.6.56a14,14,0,0,0-.1,14.82,14.51,14.51,0,0,0,19.76,4.82A14.1,14.1,0,0,0-290,.7Z"/></clipPath><clipPath id="clip-path-11"><path class="cls-1" d="M-171.32-48.59a10,10,0,0,0-3,.45,8.12,8.12,0,0,0-7.66-5.45,8.12,8.12,0,0,0-7.87,6.15,5.57,5.57,0,0,0-3.38-1.15A5.63,5.63,0,0,0-198.82-43a5.59,5.59,0,0,0,.42,2.13,6.22,6.22,0,0,0-1.67-.26,6.25,6.25,0,0,0-6.25,6.25,6.25,6.25,0,0,0,6.25,6.25h28.75a10,10,0,0,0,10-10,10,10,0,0,0-10-10"/></clipPath><clipPath id="clip-path-12"><path class="cls-1" d="M-191.32-22.39l-.14-4.28L-195-24.53a2.46,2.46,0,0,0-1.3,2.25,2.54,2.54,0,0,0,2.6,2.44,2.47,2.47,0,0,0,2.43-2.55"/></clipPath><clipPath id="clip-path-13"><path class="cls-1" d="M-193.79-13.06l-.14-4.28-3.59,2.13A2.46,2.46,0,0,0-198.82-13a2.54,2.54,0,0,0,2.59,2.44,2.47,2.47,0,0,0,2.43-2.55"/></clipPath><clipPath id="clip-path-14"><path class="cls-1" d="M-200-18.64l-.14-4.28-3.59,2.14a2.46,2.46,0,0,0-1.3,2.25,2.54,2.54,0,0,0,2.59,2.44A2.47,2.47,0,0,0-200-18.64"/></clipPath><clipPath id="clip-path-15"><path class="cls-1" d="M-177.54-22.39l-.14-4.28-3.59,2.14a2.45,2.45,0,0,0-1.3,2.25A2.54,2.54,0,0,0-180-19.84a2.47,2.47,0,0,0,2.43-2.55"/></clipPath><clipPath id="clip-path-16"><path class="cls-1" d="M-185.07-17.39l-.14-4.28-3.59,2.14a2.46,2.46,0,0,0-1.3,2.25,2.54,2.54,0,0,0,2.6,2.44,2.47,2.47,0,0,0,2.43-2.55"/></clipPath><clipPath id="clip-path-17"><path class="cls-1" d="M-178.79-11.81l-.14-4.28L-182.52-14a2.45,2.45,0,0,0-1.3,2.25,2.54,2.54,0,0,0,2.59,2.44,2.47,2.47,0,0,0,2.43-2.55"/></clipPath><clipPath id="clip-path-18"><path class="cls-1" d="M-170.07-18.64l-.14-4.28-3.59,2.14a2.46,2.46,0,0,0-1.3,2.25,2.54,2.54,0,0,0,2.6,2.44,2.47,2.47,0,0,0,2.43-2.55"/></clipPath><clipPath id="clip-path-19"><path class="cls-1" d="M-188.92,98.24a.52.52,0,0,1-.32-.11.52.52,0,0,1-.14-.65l4.32-8h-6.35a.71.71,0,0,1-.7-.37,1,1,0,0,1,.06-.88L-187.57,77c.1-.08,8.63.49,8.75.49a.52.52,0,0,1,.32.11.52.52,0,0,1,.14.65l-4.77,7.5h6.29a.52.52,0,0,1,.49.34.52.52,0,0,1-.15.58l-12.08,11.46a.52.52,0,0,1-.34.13"/></clipPath><clipPath id="clip-path-20"><path class="cls-1" d="M-171.32,58.24a10,10,0,0,0-3,.45,8.12,8.12,0,0,0-7.66-5.45,8.12,8.12,0,0,0-7.87,6.15,5.57,5.57,0,0,0-3.38-1.15,5.63,5.63,0,0,0-5.62,5.63,5.59,5.59,0,0,0,.42,2.13,6.22,6.22,0,0,0-1.67-.26A6.25,6.25,0,0,0-206.32,72a6.25,6.25,0,0,0,6.25,6.25h28.75a10,10,0,0,0,10-10,10,10,0,0,0-10-10"/></clipPath><clipPath id="clip-path-21"><path class="cls-1" d="M-42.76,18.41a22.5,22.5,0,0,1-22.5,22.5,22.5,22.5,0,0,1-22.5-22.5,22.5,22.5,0,0,1,22.5-22.5,22.5,22.5,0,0,1,22.5,22.5"/></clipPath><clipPath id="clip-path-22"><path class="cls-1" d="M-70.26,6.54a4.37,4.37,0,0,1-4.37,4.37A4.37,4.37,0,0,1-79,6.54a4.37,4.37,0,0,1,4.38-4.37,4.37,4.37,0,0,1,4.38,4.38"/></clipPath><clipPath id="clip-path-23"><path class="cls-1" d="M-59,15.91a3.75,3.75,0,0,1-3.75,3.75,3.75,3.75,0,0,1-3.75-3.75,3.75,3.75,0,0,1,3.75-3.75A3.75,3.75,0,0,1-59,15.91"/></clipPath><clipPath id="clip-path-24"><path class="cls-1" d="M-56.51,30.29a4.37,4.37,0,0,1-4.37,4.38,4.37,4.37,0,0,1-4.37-4.37,4.37,4.37,0,0,1,4.38-4.37,4.37,4.37,0,0,1,4.38,4.38"/></clipPath><clipPath id="clip-path-25"><path class="cls-1" d="M-59,3.41a2.5,2.5,0,0,1-2.5,2.5A2.5,2.5,0,0,1-64,3.41a2.5,2.5,0,0,1,2.5-2.5A2.5,2.5,0,0,1-59,3.41"/></clipPath><clipPath id="clip-path-26"><path class="cls-1" d="M-85.26,18.41A1.25,1.25,0,0,0-84,19.66a1.25,1.25,0,0,0,1.25-1.25A1.25,1.25,0,0,0-84,17.16a1.25,1.25,0,0,0-1.25,1.25"/></clipPath><clipPath id="clip-path-27"><path class="cls-1" d="M-51.51,7.16a1.25,1.25,0,0,0,1.25,1.25A1.25,1.25,0,0,0-49,7.16a1.25,1.25,0,0,0-1.25-1.25,1.25,1.25,0,0,0-1.25,1.25"/></clipPath><clipPath id="clip-path-28"><path class="cls-1" d="M-70.26,34.66A1.25,1.25,0,0,0-69,35.91a1.25,1.25,0,0,0,1.25-1.25A1.25,1.25,0,0,0-69,33.41a1.25,1.25,0,0,0-1.25,1.25"/></clipPath><clipPath id="clip-path-29"><path class="cls-1" d="M-45.26,19.66a2.5,2.5,0,0,1-2.5,2.5,2.5,2.5,0,0,1-2.5-2.5,2.5,2.5,0,0,1,2.5-2.5,2.5,2.5,0,0,1,2.5,2.5"/></clipPath><clipPath id="clip-path-30"><path class="cls-1" d="M-72.76,24.66a2.5,2.5,0,0,1-2.5,2.5,2.5,2.5,0,0,1-2.5-2.5,2.5,2.5,0,0,1,2.5-2.5,2.5,2.5,0,0,1,2.5,2.5"/></clipPath><clipPath id="clip-path-31"><rect class="cls-2" x="0.46" y="-1.84" width="49.07" height="53"/></clipPath><clipPath id="clip-path-32"><rect class="cls-2" x="-164.54" y="-935.84" width="1440" height="2760"/></clipPath><clipPath id="clip-path-33"><rect class="cls-2" x="3.46" y="2.16" width="43" height="45"/></clipPath><clipPath id="clip-path-34"><path class="cls-1" d="M26.39,36.64v-24l6-6a1.25,1.25,0,0,0-1.77-1.77L26.39,9.14V3.41a1.25,1.25,0,1,0-2.5,0V9.14L19.62,4.87a1.25,1.25,0,0,0-1.77,1.77l6,6v24l-6,6a1.25,1.25,0,0,0,1.77,1.77l4.27-4.27v5.73a1.25,1.25,0,0,0,2.5,0V40.18l4.27,4.27a1.25,1.25,0,0,0,1.77-1.77Z"/></clipPath><clipPath id="clip-path-35"><rect class="cls-2" x="4.46" y="2.16" width="42" height="45"/></clipPath><clipPath id="clip-path-36"><path class="cls-1" d="M46.07,28a1.22,1.22,0,0,0-1.53-.88L36.3,29.33l-20.76-12L13.34,9.1a1.25,1.25,0,0,0-2.42.65l1.56,5.83-5-2.87a1.25,1.25,0,0,0-1.25,2.17l5,2.87L5.4,19.3A1.25,1.25,0,0,0,6,21.72l8.25-2.21L35,31.49l2.21,8.25a1.25,1.25,0,1,0,2.41-.65l-1.56-5.83,5,2.87A1.25,1.25,0,1,0,44.32,34l-5-2.87,5.83-1.56A1.22,1.22,0,0,0,46.07,28"/></clipPath><clipPath id="clip-path-38"><path class="cls-1" d="M45.19,19.3l-5.83-1.56,5-2.87a1.25,1.25,0,1,0-1.25-2.17l-5,2.87,1.56-5.83a1.25,1.25,0,1,0-2.41-.65L35,17.34l-20.76,12L6.05,27.12a1.25,1.25,0,1,0-.65,2.41l5.83,1.56L6.27,34a1.25,1.25,0,0,0,1.25,2.16l5-2.87-1.56,5.83a1.25,1.25,0,0,0,2.42.65l2.21-8.25,20.75-12,8.24,2.21a1.25,1.25,0,1,0,.65-2.42"/></clipPath><clipPath id="clip-path-40"><path class="cls-1" d="M-52.76,86.54a10,10,0,0,0-3,.45,8.12,8.12,0,0,0-7.66-5.45,8.12,8.12,0,0,0-7.87,6.15,5.57,5.57,0,0,0-3.38-1.15,5.63,5.63,0,0,0-5.62,5.63,5.59,5.59,0,0,0,.42,2.13A6.22,6.22,0,0,0-81.51,94a6.25,6.25,0,0,0-6.25,6.25,6.25,6.25,0,0,0,6.25,6.25h28.75a10,10,0,0,0,10-10,10,10,0,0,0-10-10"/></clipPath><clipPath id="clip-path-41"><path class="cls-1" d="M-82.76,120.91a.63.63,0,0,1-.62.63.63.63,0,0,1-.62-.62v-7.5a.63.63,0,0,1,.63-.62.63.63,0,0,1,.63.63Z"/></clipPath><clipPath id="clip-path-42"><path class="cls-1" d="M-79.83,118.5a.63.63,0,0,1,.23.85.62.62,0,0,1-.85.23l-6.5-3.75a.62.62,0,0,1-.23-.85.62.62,0,0,1,.85-.23Z"/></clipPath><clipPath id="clip-path-43"><path class="cls-1" d="M-86.95,118.5a.63.63,0,0,0-.23.85.62.62,0,0,0,.85.23l6.49-3.75a.62.62,0,0,0,.23-.85.62.62,0,0,0-.85-.23Z"/></clipPath><clipPath id="clip-path-44"><path class="cls-1" d="M-70.26,125.91a.63.63,0,0,1-.62.63.63.63,0,0,1-.62-.62v-7.5a.63.63,0,0,1,.63-.62.63.63,0,0,1,.63.63Z"/></clipPath><clipPath id="clip-path-45"><path class="cls-1" d="M-67.33,123.5a.63.63,0,0,1,.23.85.62.62,0,0,1-.85.23l-6.49-3.75a.62.62,0,0,1-.23-.85.62.62,0,0,1,.85-.23Z"/></clipPath><clipPath id="clip-path-46"><path class="cls-1" d="M-74.45,123.5a.63.63,0,0,0-.23.85.62.62,0,0,0,.85.23l6.49-3.75a.62.62,0,0,0,.23-.85.62.62,0,0,0-.85-.23Z"/></clipPath><clipPath id="clip-path-47"><path class="cls-1" d="M-72.76,115.91a.63.63,0,0,1-.62.63.63.63,0,0,1-.62-.62v-7.5a.63.63,0,0,1,.63-.62.63.63,0,0,1,.63.63Z"/></clipPath><clipPath id="clip-path-48"><path class="cls-1" d="M-69.83,113.5a.63.63,0,0,1,.23.85.62.62,0,0,1-.85.23l-6.49-3.75a.62.62,0,0,1-.23-.85.62.62,0,0,1,.85-.23Z"/></clipPath><clipPath id="clip-path-49"><path class="cls-1" d="M-76.95,113.5a.63.63,0,0,0-.23.85.62.62,0,0,0,.85.23l6.49-3.75a.62.62,0,0,0,.23-.85.62.62,0,0,0-.85-.23Z"/></clipPath><clipPath id="clip-path-50"><path class="cls-1" d="M-60.26,117.16a.63.63,0,0,1-.62.63.63.63,0,0,1-.62-.62v-7.5a.63.63,0,0,1,.63-.62.63.63,0,0,1,.63.63Z"/></clipPath><clipPath id="clip-path-51"><path class="cls-1" d="M-57.33,114.75a.63.63,0,0,1,.23.85.62.62,0,0,1-.85.23l-6.49-3.75a.62.62,0,0,1-.23-.85.62.62,0,0,1,.85-.23Z"/></clipPath><clipPath id="clip-path-52"><path class="cls-1" d="M-64.45,114.75a.63.63,0,0,0-.23.85.62.62,0,0,0,.85.23l6.49-3.75a.62.62,0,0,0,.23-.85A.62.62,0,0,0-58,111Z"/></clipPath><clipPath id="clip-path-53"><path class="cls-1" d="M-47.76,115.91a.63.63,0,0,1-.62.63.63.63,0,0,1-.62-.62v-7.5a.63.63,0,0,1,.63-.62.63.63,0,0,1,.63.63Z"/></clipPath><clipPath id="clip-path-54"><path class="cls-1" d="M-44.83,113.5a.63.63,0,0,1,.23.85.62.62,0,0,1-.85.23l-6.49-3.75a.62.62,0,0,1-.23-.85.62.62,0,0,1,.85-.23Z"/></clipPath><clipPath id="clip-path-55"><path class="cls-1" d="M-51.95,113.5a.63.63,0,0,0-.23.85.62.62,0,0,0,.85.23l6.49-3.75a.62.62,0,0,0,.23-.85.62.62,0,0,0-.85-.23Z"/></clipPath><clipPath id="clip-path-56"><path class="cls-1" d="M-54,125.91a.63.63,0,0,1-.62.63.63.63,0,0,1-.62-.62v-7.5a.63.63,0,0,1,.63-.62.63.63,0,0,1,.63.63Z"/></clipPath><clipPath id="clip-path-57"><path class="cls-1" d="M-51.08,123.5a.63.63,0,0,1,.23.85.62.62,0,0,1-.85.23l-6.5-3.75a.62.62,0,0,1-.23-.85.62.62,0,0,1,.85-.23Z"/></clipPath><clipPath id="clip-path-58"><path class="cls-1" d="M-58.2,123.5a.63.63,0,0,0-.23.85.62.62,0,0,0,.85.23l6.49-3.75a.62.62,0,0,0,.23-.85.62.62,0,0,0-.85-.23Z"/></clipPath><clipPath id="clip-path-59"><path class="cls-1" d="M50.31,152.19s4.48-7.24,3.33-13.85c-.89-5.13-4.23-6.17-7.55-10.73-3.91-5.37-4.3-9.33-3.12-11.25,1.41-2.29,6.67-5,18.44-5,7.55,0,11,2,12.13,4.27,1.41,2.76.57,12-2.76,18.33-5.49,10.46-11.56,17.45-17.19,19.9-4.44,1.93-3.28-1.67-3.28-1.67"/></clipPath><clipPath id="clip-path-60"><path class="cls-1" d="M43,116.36c-1.18,1.92-.78,5.88,3.13,11.25,3.32,4.56,6.66,5.6,7.55,10.73.67,3.85-.57,7.92-1.73,10.64h8.41a62.62,62.62,0,0,0,10.46-15c3.33-6.35,4.17-15.57,2.76-18.33L66.08,113H48.27C45.32,114,43.66,115.22,43,116.36Z"/></clipPath><clipPath id="clip-path-61"><path class="cls-1" d="M71,156.36a2.57,2.57,0,0,0,0-.31,2.7,2.7,0,0,0-1.93-2.58,4.84,4.84,0,0,0-9-2A3.61,3.61,0,0,0,55,152.79a3.58,3.58,0,0,0-2.6-1.12,3.54,3.54,0,0,0-1,.17,3.4,3.4,0,0,0-1.46-.63,5.12,5.12,0,0,0-9.8.81,3.35,3.35,0,0,0-.39,0,3.09,3.09,0,0,0-2.82,4.37Z"/></clipPath></defs><title>weather</title><g class="cls-33"><g class="cls-34"><g class="cls-35"><g class="cls-36"><g class="cls-37"><g class="cls-38"><rect class="cls-39" x="12.46" y="-2.84" width="25.36" height="55"/></g></g><g class="cls-40"><g class="cls-38"><rect class="cls-39" x="-0.54" y="3.16" width="51.66" height="42.51"/></g></g><g class="cls-41"><g class="cls-38"><rect class="cls-39" x="-0.54" y="3.16" width="51.66" height="42.51"/></g></g></g></g></g></g></svg>