<svg id="Layer_1" data-name="Layer 1" xmlns="http://www.w3.org/2000/svg" xmlns:xlink="http://www.w3.org/1999/xlink" viewBox="0 0 50 50"><defs><style>.cls-1,.cls-2{fill:none;}.cls-1{clip-rule:evenodd;}.cls-3{clip-path:url(#clip-path);}.cls-4{clip-path:url(#clip-path-2);}.cls-5{clip-path:url(#clip-path-3);}.cls-6{clip-path:url(#clip-path-4);}.cls-7{clip-path:url(#clip-path-5);}.cls-8{clip-path:url(#clip-path-6);}.cls-9{clip-path:url(#clip-path-7);}.cls-10{clip-path:url(#clip-path-8);}.cls-11{clip-path:url(#clip-path-9);}.cls-12{clip-path:url(#clip-path-10);}.cls-13{clip-path:url(#clip-path-11);}.cls-14{clip-path:url(#clip-path-12);}.cls-15{fill:#e8ebf6;}.cls-16{clip-path:url(#clip-path-13);}.cls-17{fill:#1b98fc;}.cls-18{clip-path:url(#clip-path-15);}.cls-19{clip-path:url(#clip-path-17);}.cls-20{clip-path:url(#clip-path-19);}.cls-21{clip-path:url(#clip-path-21);}.cls-22{clip-path:url(#clip-path-23);}.cls-23{clip-path:url(#clip-path-25);}.cls-24{clip-path:url(#clip-path-27);}.cls-25{clip-path:url(#clip-path-28);}.cls-26{clip-path:url(#clip-path-29);}.cls-27{clip-path:url(#clip-path-30);}.cls-28{clip-path:url(#clip-path-31);}.cls-29{clip-path:url(#clip-path-32);}.cls-30{clip-path:url(#clip-path-33);}.cls-31{clip-path:url(#clip-path-34);}.cls-32{clip-path:url(#clip-path-35);}.cls-33{clip-path:url(#clip-path-36);}.cls-34{clip-path:url(#clip-path-37);}.cls-35{clip-path:url(#clip-path-38);}.cls-36{clip-path:url(#clip-path-39);}.cls-37{clip-path:url(#clip-path-40);}.cls-38{clip-path:url(#clip-path-41);}.cls-39{clip-path:url(#clip-path-42);}.cls-40{clip-path:url(#clip-path-43);}.cls-41{clip-path:url(#clip-path-44);}.cls-42{clip-path:url(#clip-path-45);}.cls-43{clip-path:url(#clip-path-46);}.cls-44{clip-path:url(#clip-path-47);}.cls-45{clip-path:url(#clip-path-48);}.cls-46{clip-path:url(#clip-path-49);}.cls-47{clip-path:url(#clip-path-50);}.cls-48{clip-path:url(#clip-path-51);}.cls-49{clip-path:url(#clip-path-52);}.cls-50{clip-path:url(#clip-path-53);}.cls-51{clip-path:url(#clip-path-54);}.cls-52{clip-path:url(#clip-path-55);}.cls-53{clip-path:url(#clip-path-56);}.cls-54{clip-path:url(#clip-path-57);}.cls-55{clip-path:url(#clip-path-58);}.cls-56{clip-path:url(#clip-path-59);}.cls-57{clip-path:url(#clip-path-60);}.cls-58{clip-path:url(#clip-path-61);}</style><clipPath id="clip-path"><path class="cls-1" d="M-96.06,137.33a2.45,2.45,0,0,1,2.5-2.5,2.45,2.45,0,0,1,2.5,2.5v2.5a2.45,2.45,0,0,1-2.5,2.5,2.45,2.45,0,0,1-2.5-2.5Z"/></clipPath><clipPath id="clip-path-2"><path class="cls-1" d="M-73.56,154.83a2.45,2.45,0,0,1,2.5,2.5,2.45,2.45,0,0,1-2.5,2.5h-2.5a2.45,2.45,0,0,1-2.5-2.5,2.45,2.45,0,0,1,2.5-2.5Z"/></clipPath><clipPath id="clip-path-3"><path class="cls-1" d="M-111.06,154.83a2.45,2.45,0,0,1,2.5,2.5,2.45,2.45,0,0,1-2.5,2.5h-2.5a2.45,2.45,0,0,1-2.5-2.5,2.45,2.45,0,0,1,2.5-2.5Z"/></clipPath><clipPath id="clip-path-4"><path class="cls-1" d="M-104.65,143.95a2.45,2.45,0,0,1,0,3.53,2.45,2.45,0,0,1-3.54,0l-1.77-1.77a2.45,2.45,0,0,1,0-3.54,2.45,2.45,0,0,1,3.54,0Z"/></clipPath><clipPath id="clip-path-5"><path class="cls-1" d="M-78.4,170.2a2.45,2.45,0,0,1,0,3.53,2.45,2.45,0,0,1-3.53,0L-83.71,172a2.45,2.45,0,0,1,0-3.53,2.45,2.45,0,0,1,3.53,0Z"/></clipPath><clipPath id="clip-path-6"><path class="cls-1" d="M-78.92,147.48a2.45,2.45,0,0,1-3.53,0,2.45,2.45,0,0,1,0-3.53l1.77-1.77a2.45,2.45,0,0,1,3.53,0,2.45,2.45,0,0,1,0,3.53Z"/></clipPath><clipPath id="clip-path-7"><path class="cls-1" d="M-105.17,173.73a2.45,2.45,0,0,1-3.54,0,2.45,2.45,0,0,1,0-3.53l1.77-1.77a2.45,2.45,0,0,1,3.53,0,2.45,2.45,0,0,1,0,3.54Z"/></clipPath><clipPath id="clip-path-8"><path class="cls-1" d="M-96.06,174.83a2.45,2.45,0,0,1,2.5-2.5,2.45,2.45,0,0,1,2.5,2.5v2.5a2.45,2.45,0,0,1-2.5,2.5,2.45,2.45,0,0,1-2.5-2.5Z"/></clipPath><clipPath id="clip-path-9"><path class="cls-1" d="M-81.06,157.33a12.5,12.5,0,0,0-12.5-12.5,12.5,12.5,0,0,0-12.5,12.5,12.5,12.5,0,0,0,12.5,12.5,12.5,12.5,0,0,0,12.5-12.5"/></clipPath><clipPath id="clip-path-10"><path class="cls-1" d="M-94,36.44l-11.81,20.71a14,14,0,0,0-.1,14.82,14.51,14.51,0,0,0,19.76,4.82,14.1,14.1,0,0,0,4.89-19.5Z"/></clipPath><clipPath id="clip-path-11"><path class="cls-1" d="M37.5,8a10,10,0,0,0-3,.45A8.12,8.12,0,0,0,19,9.15a5.61,5.61,0,0,0-8.58,6.6,6.22,6.22,0,0,0-1.67-.26,6.25,6.25,0,0,0,0,12.5H37.5a10,10,0,0,0,0-20"/></clipPath><clipPath id="clip-path-12"><rect class="cls-2" x="-237.5" y="-870" width="1440" height="2760"/></clipPath><clipPath id="clip-path-13"><path class="cls-1" d="M17.5,34.2l-.14-4.28-3.59,2.14a2.46,2.46,0,0,0-1.3,2.25,2.54,2.54,0,0,0,2.6,2.44A2.47,2.47,0,0,0,17.5,34.2"/></clipPath><clipPath id="clip-path-15"><path class="cls-1" d="M15,43.53l-.14-4.28L11.3,41.38A2.46,2.46,0,0,0,10,43.63a2.54,2.54,0,0,0,2.59,2.44A2.47,2.47,0,0,0,15,43.53"/></clipPath><clipPath id="clip-path-17"><path class="cls-1" d="M8.78,38l-.14-4.28L5,35.81a2.46,2.46,0,0,0-1.3,2.25,2.54,2.54,0,0,0,2.6,2.44A2.47,2.47,0,0,0,8.78,38"/></clipPath><clipPath id="clip-path-19"><path class="cls-1" d="M31.28,34.2l-.14-4.28-3.59,2.14a2.45,2.45,0,0,0-1.3,2.25,2.54,2.54,0,0,0,2.59,2.44,2.47,2.47,0,0,0,2.43-2.55"/></clipPath><clipPath id="clip-path-21"><path class="cls-1" d="M23.75,39.2l-.14-4.28L20,37.06a2.46,2.46,0,0,0-1.3,2.25,2.54,2.54,0,0,0,2.6,2.44,2.47,2.47,0,0,0,2.43-2.55"/></clipPath><clipPath id="clip-path-23"><path class="cls-1" d="M30,44.78l-.14-4.28L26.3,42.63A2.45,2.45,0,0,0,25,44.88a2.54,2.54,0,0,0,2.59,2.44A2.47,2.47,0,0,0,30,44.78"/></clipPath><clipPath id="clip-path-25"><path class="cls-1" d="M38.75,38l-.14-4.28L35,35.81a2.46,2.46,0,0,0-1.3,2.25,2.54,2.54,0,0,0,2.6,2.44A2.47,2.47,0,0,0,38.75,38"/></clipPath><clipPath id="clip-path-27"><path class="cls-1" d="M19.9,154.83a.52.52,0,0,1-.46-.76l4.32-8H17.4a.71.71,0,0,1-.7-.37,1,1,0,0,1,.06-.88l4.49-11.25c.1-.08,8.63.49,8.75.49a.52.52,0,0,1,.46.76l-4.77,7.5H32a.52.52,0,0,1,.34.91L20.24,154.7a.52.52,0,0,1-.34.13"/></clipPath><clipPath id="clip-path-28"><path class="cls-1" d="M37.5,114.83a10,10,0,0,0-3,.45A8.12,8.12,0,0,0,19,116a5.61,5.61,0,0,0-8.58,6.6,6.22,6.22,0,0,0-1.67-.26,6.25,6.25,0,1,0,0,12.5H37.5a10,10,0,0,0,0-20"/></clipPath><clipPath id="clip-path-29"><path class="cls-1" d="M166.06,75a22.5,22.5,0,1,1-22.5-22.5A22.5,22.5,0,0,1,166.06,75"/></clipPath><clipPath id="clip-path-30"><path class="cls-1" d="M138.56,63.13a4.38,4.38,0,1,1-4.37-4.37,4.37,4.37,0,0,1,4.38,4.38"/></clipPath><clipPath id="clip-path-31"><path class="cls-1" d="M149.81,72.5a3.75,3.75,0,1,1-3.75-3.75,3.75,3.75,0,0,1,3.75,3.75"/></clipPath><clipPath id="clip-path-32"><path class="cls-1" d="M152.31,86.88a4.38,4.38,0,1,1-4.37-4.37,4.37,4.37,0,0,1,4.38,4.38"/></clipPath><clipPath id="clip-path-33"><path class="cls-1" d="M149.81,60a2.5,2.5,0,1,1-2.5-2.5,2.5,2.5,0,0,1,2.5,2.5"/></clipPath><clipPath id="clip-path-34"><path class="cls-1" d="M123.56,75a1.25,1.25,0,1,0,1.25-1.25A1.25,1.25,0,0,0,123.56,75"/></clipPath><clipPath id="clip-path-35"><path class="cls-1" d="M157.31,63.75a1.25,1.25,0,1,0,1.25-1.25,1.25,1.25,0,0,0-1.25,1.25"/></clipPath><clipPath id="clip-path-36"><path class="cls-1" d="M138.56,91.25A1.25,1.25,0,1,0,139.81,90a1.25,1.25,0,0,0-1.25,1.25"/></clipPath><clipPath id="clip-path-37"><path class="cls-1" d="M163.56,76.25a2.5,2.5,0,1,1-2.5-2.5,2.5,2.5,0,0,1,2.5,2.5"/></clipPath><clipPath id="clip-path-38"><path class="cls-1" d="M136.06,81.25a2.5,2.5,0,1,1-2.5-2.5,2.5,2.5,0,0,1,2.5,2.5"/></clipPath><clipPath id="clip-path-39"><rect class="cls-2" x="209.28" y="54.75" width="49.07" height="53"/></clipPath><clipPath id="clip-path-40"><path class="cls-1" d="M156.06,143.13a10,10,0,0,0-3,.45,8.12,8.12,0,0,0-15.54.7,5.61,5.61,0,0,0-8.58,6.6,6.24,6.24,0,1,0-1.67,12.24h28.75a10,10,0,0,0,0-20"/></clipPath><clipPath id="clip-path-41"><path class="cls-1" d="M126.06,177.5a.62.62,0,0,1-1.25,0V170a.63.63,0,0,1,1.25,0Z"/></clipPath><clipPath id="clip-path-42"><path class="cls-1" d="M129,175.09a.62.62,0,1,1-.62,1.08l-6.5-3.75a.62.62,0,1,1,.63-1.08Z"/></clipPath><clipPath id="clip-path-43"><path class="cls-1" d="M121.87,175.09a.62.62,0,1,0,.63,1.08l6.49-3.75a.62.62,0,1,0-.62-1.08Z"/></clipPath><clipPath id="clip-path-44"><path class="cls-1" d="M138.56,182.5a.63.63,0,0,1-1.25,0V175a.63.63,0,0,1,1.25,0Z"/></clipPath><clipPath id="clip-path-45"><path class="cls-1" d="M141.49,180.09a.62.62,0,1,1-.62,1.08l-6.49-3.75a.62.62,0,1,1,.63-1.08Z"/></clipPath><clipPath id="clip-path-46"><path class="cls-1" d="M134.37,180.09a.62.62,0,1,0,.63,1.08l6.49-3.75a.62.62,0,1,0-.62-1.08Z"/></clipPath><clipPath id="clip-path-47"><path class="cls-1" d="M136.06,172.5a.63.63,0,0,1-1.25,0V165a.63.63,0,0,1,1.25,0Z"/></clipPath><clipPath id="clip-path-48"><path class="cls-1" d="M139,170.09a.62.62,0,1,1-.62,1.08l-6.49-3.75a.62.62,0,1,1,.63-1.08Z"/></clipPath><clipPath id="clip-path-49"><path class="cls-1" d="M131.87,170.09a.62.62,0,1,0,.63,1.08l6.49-3.75a.62.62,0,1,0-.62-1.08Z"/></clipPath><clipPath id="clip-path-50"><path class="cls-1" d="M148.56,173.75a.63.63,0,0,1-1.25,0v-7.5a.63.63,0,0,1,1.25,0Z"/></clipPath><clipPath id="clip-path-51"><path class="cls-1" d="M151.49,171.34a.62.62,0,1,1-.62,1.08l-6.49-3.75a.62.62,0,1,1,.63-1.08Z"/></clipPath><clipPath id="clip-path-52"><path class="cls-1" d="M144.37,171.34a.62.62,0,1,0,.63,1.08l6.49-3.75a.62.62,0,1,0-.62-1.08Z"/></clipPath><clipPath id="clip-path-53"><path class="cls-1" d="M161.06,172.5a.63.63,0,0,1-1.25,0V165a.63.63,0,0,1,1.25,0Z"/></clipPath><clipPath id="clip-path-54"><path class="cls-1" d="M164,170.09a.62.62,0,0,1-.62,1.08l-6.49-3.75a.62.62,0,1,1,.63-1.08Z"/></clipPath><clipPath id="clip-path-55"><path class="cls-1" d="M156.87,170.09a.62.62,0,1,0,.63,1.08l6.49-3.75a.62.62,0,0,0-.62-1.08Z"/></clipPath><clipPath id="clip-path-56"><path class="cls-1" d="M154.81,182.5a.63.63,0,0,1-1.25,0V175a.63.63,0,0,1,1.25,0Z"/></clipPath><clipPath id="clip-path-57"><path class="cls-1" d="M157.74,180.09a.62.62,0,0,1-.62,1.08l-6.5-3.75a.62.62,0,1,1,.63-1.08Z"/></clipPath><clipPath id="clip-path-58"><path class="cls-1" d="M150.62,180.09a.62.62,0,1,0,.63,1.08l6.49-3.75a.62.62,0,0,0-.62-1.08Z"/></clipPath><clipPath id="clip-path-59"><path class="cls-1" d="M259.13,208.78s4.48-7.24,3.33-13.85c-.89-5.13-4.23-6.17-7.55-10.73-3.91-5.37-4.3-9.33-3.12-11.25,1.41-2.29,6.67-5,18.44-5,7.55,0,11,2,12.13,4.27,1.41,2.76.57,12-2.76,18.33C274.11,201,268,208,262.41,210.45c-4.44,1.93-3.28-1.67-3.28-1.67"/></clipPath><clipPath id="clip-path-60"><path class="cls-1" d="M251.78,172.95c-1.18,1.92-.78,5.88,3.13,11.25,3.32,4.56,6.66,5.6,7.55,10.73.67,3.85-.57,7.92-1.73,10.64h8.41a62.62,62.62,0,0,0,10.46-15c3.33-6.35,4.17-15.57,2.76-18.33l-7.45-2.62H257.09C254.14,170.56,252.48,171.8,251.78,172.95Z"/></clipPath><clipPath id="clip-path-61"><path class="cls-1" d="M279.77,212.95a2.57,2.57,0,0,0,0-.31,2.7,2.7,0,0,0-1.93-2.58,4.84,4.84,0,0,0-9-2,3.61,3.61,0,0,0-5.11,1.34,3.58,3.58,0,0,0-2.6-1.12,3.54,3.54,0,0,0-1,.17,3.4,3.4,0,0,0-1.46-.63,5.12,5.12,0,0,0-9.8.81,3.35,3.35,0,0,0-.39,0,3.09,3.09,0,0,0-2.82,4.37Z"/></clipPath></defs><title>weather</title><g class="cls-13"><g class="cls-14"><rect class="cls-15" x="-2.5" y="-2" width="55" height="35"/></g></g><g class="cls-16"><g class="cls-14"><rect class="cls-17" x="7.47" y="24.92" width="15.03" height="16.83"/></g></g><g class="cls-18"><g class="cls-14"><rect class="cls-17" x="5" y="34.25" width="15.03" height="16.83"/></g></g><g class="cls-19"><g class="cls-14"><rect class="cls-17" x="-1.25" y="28.67" width="15.03" height="16.83"/></g></g><g class="cls-20"><g class="cls-14"><rect class="cls-17" x="21.25" y="24.92" width="15.03" height="16.83"/></g></g><g class="cls-21"><g class="cls-14"><rect class="cls-17" x="13.72" y="29.92" width="15.03" height="16.83"/></g></g><g class="cls-22"><g class="cls-14"><rect class="cls-17" x="20" y="35.5" width="15.03" height="16.83"/></g></g><g class="cls-23"><g class="cls-14"><rect class="cls-17" x="28.72" y="28.67" width="15.03" height="16.83"/></g></g></svg>