<svg id="Layer_1" data-name="Layer 1" xmlns="http://www.w3.org/2000/svg" xmlns:xlink="http://www.w3.org/1999/xlink" viewBox="0 0 50 50"><defs><style>.cls-1,.cls-2{fill:none;}.cls-1{clip-rule:evenodd;}.cls-3{clip-path:url(#clip-path);}.cls-4{clip-path:url(#clip-path-2);}.cls-5{clip-path:url(#clip-path-3);}.cls-6{clip-path:url(#clip-path-4);}.cls-7{clip-path:url(#clip-path-5);}.cls-8{clip-path:url(#clip-path-6);}.cls-9{clip-path:url(#clip-path-7);}.cls-10{clip-path:url(#clip-path-8);}.cls-11{clip-path:url(#clip-path-9);}.cls-12{clip-path:url(#clip-path-10);}.cls-13{clip-path:url(#clip-path-11);}.cls-14{clip-path:url(#clip-path-12);}.cls-15{clip-path:url(#clip-path-13);}.cls-16{clip-path:url(#clip-path-14);}.cls-17{clip-path:url(#clip-path-15);}.cls-18{clip-path:url(#clip-path-16);}.cls-19{clip-path:url(#clip-path-17);}.cls-20{clip-path:url(#clip-path-18);}.cls-21{clip-path:url(#clip-path-19);}.cls-22{clip-path:url(#clip-path-20);}.cls-23{clip-path:url(#clip-path-21);}.cls-24{clip-path:url(#clip-path-22);}.cls-25{clip-path:url(#clip-path-23);}.cls-26{clip-path:url(#clip-path-24);}.cls-27{clip-path:url(#clip-path-25);}.cls-28{clip-path:url(#clip-path-26);}.cls-29{clip-path:url(#clip-path-27);}.cls-30{clip-path:url(#clip-path-28);}.cls-31{clip-path:url(#clip-path-29);}.cls-32{clip-path:url(#clip-path-30);}.cls-33{clip-path:url(#clip-path-31);}.cls-34{clip-path:url(#clip-path-32);}.cls-35{clip-path:url(#clip-path-33);}.cls-36{fill:#e8ebf6;}.cls-37{clip-path:url(#clip-path-34);}.cls-38{fill:#a5dafd;}.cls-39{clip-path:url(#clip-path-36);}.cls-40{clip-path:url(#clip-path-38);}.cls-41{clip-path:url(#clip-path-40);}.cls-42{clip-path:url(#clip-path-42);}.cls-43{clip-path:url(#clip-path-44);}.cls-44{clip-path:url(#clip-path-46);}.cls-45{clip-path:url(#clip-path-48);}.cls-46{clip-path:url(#clip-path-50);}.cls-47{clip-path:url(#clip-path-52);}.cls-48{clip-path:url(#clip-path-54);}.cls-49{clip-path:url(#clip-path-56);}.cls-50{clip-path:url(#clip-path-58);}.cls-51{clip-path:url(#clip-path-60);}.cls-52{clip-path:url(#clip-path-62);}.cls-53{clip-path:url(#clip-path-64);}.cls-54{clip-path:url(#clip-path-66);}.cls-55{clip-path:url(#clip-path-68);}.cls-56{clip-path:url(#clip-path-70);}.cls-57{clip-path:url(#clip-path-71);}.cls-58{clip-path:url(#clip-path-72);}</style><clipPath id="clip-path"><path class="cls-1" d="M-214.61,1.7a2.45,2.45,0,0,1,2.5-2.5,2.45,2.45,0,0,1,2.5,2.5V4.2a2.45,2.45,0,0,1-2.5,2.5,2.45,2.45,0,0,1-2.5-2.5Z"/></clipPath><clipPath id="clip-path-2"><path class="cls-1" d="M-192.11,19.2a2.45,2.45,0,0,1,2.5,2.5,2.45,2.45,0,0,1-2.5,2.5h-2.5a2.45,2.45,0,0,1-2.5-2.5,2.45,2.45,0,0,1,2.5-2.5Z"/></clipPath><clipPath id="clip-path-3"><path class="cls-1" d="M-229.61,19.2a2.45,2.45,0,0,1,2.5,2.5,2.45,2.45,0,0,1-2.5,2.5h-2.5a2.45,2.45,0,0,1-2.5-2.5,2.45,2.45,0,0,1,2.5-2.5Z"/></clipPath><clipPath id="clip-path-4"><path class="cls-1" d="M-223.21,8.32a2.45,2.45,0,0,1,0,3.53,2.45,2.45,0,0,1-3.54,0l-1.77-1.77a2.45,2.45,0,0,1,0-3.54,2.45,2.45,0,0,1,3.54,0Z"/></clipPath><clipPath id="clip-path-5"><path class="cls-1" d="M-197,34.57a2.45,2.45,0,0,1,0,3.53,2.45,2.45,0,0,1-3.53,0l-1.77-1.77a2.45,2.45,0,0,1,0-3.53,2.45,2.45,0,0,1,3.53,0Z"/></clipPath><clipPath id="clip-path-6"><path class="cls-1" d="M-197.48,11.85a2.45,2.45,0,0,1-3.53,0,2.45,2.45,0,0,1,0-3.53l1.77-1.77a2.45,2.45,0,0,1,3.53,0,2.45,2.45,0,0,1,0,3.53Z"/></clipPath><clipPath id="clip-path-7"><path class="cls-1" d="M-223.73,38.1a2.45,2.45,0,0,1-3.54,0,2.45,2.45,0,0,1,0-3.53l1.77-1.77a2.45,2.45,0,0,1,3.53,0,2.45,2.45,0,0,1,0,3.54Z"/></clipPath><clipPath id="clip-path-8"><path class="cls-1" d="M-214.61,39.2a2.45,2.45,0,0,1,2.5-2.5,2.45,2.45,0,0,1,2.5,2.5v2.5a2.45,2.45,0,0,1-2.5,2.5,2.45,2.45,0,0,1-2.5-2.5Z"/></clipPath><clipPath id="clip-path-9"><path class="cls-1" d="M-199.61,21.7a12.5,12.5,0,0,0-12.5-12.5,12.5,12.5,0,0,0-12.5,12.5,12.5,12.5,0,0,0,12.5,12.5,12.5,12.5,0,0,0,12.5-12.5"/></clipPath><clipPath id="clip-path-10"><path class="cls-1" d="M-212.53-99.18l-11.81,20.71a14,14,0,0,0-.1,14.82,14.51,14.51,0,0,0,19.76,4.82,14.1,14.1,0,0,0,4.89-19.5Z"/></clipPath><clipPath id="clip-path-11"><path class="cls-1" d="M-81.06-127.63a10,10,0,0,0-3,.45,8.12,8.12,0,0,0-7.66-5.45,8.12,8.12,0,0,0-7.87,6.15,5.57,5.57,0,0,0-3.38-1.15,5.63,5.63,0,0,0-5.62,5.63,5.59,5.59,0,0,0,.42,2.13,6.22,6.22,0,0,0-1.67-.26,6.25,6.25,0,0,0-6.25,6.25,6.25,6.25,0,0,0,6.25,6.25h28.75a10,10,0,0,0,10-10,10,10,0,0,0-10-10"/></clipPath><clipPath id="clip-path-12"><path class="cls-1" d="M-101.06-101.43l-.14-4.28-3.59,2.14a2.46,2.46,0,0,0-1.3,2.25,2.54,2.54,0,0,0,2.6,2.44,2.47,2.47,0,0,0,2.43-2.55"/></clipPath><clipPath id="clip-path-13"><path class="cls-1" d="M-103.53-92.1l-.14-4.28-3.59,2.13a2.46,2.46,0,0,0-1.3,2.25A2.54,2.54,0,0,0-106-89.55a2.47,2.47,0,0,0,2.43-2.55"/></clipPath><clipPath id="clip-path-14"><path class="cls-1" d="M-109.78-97.68l-.14-4.28-3.59,2.14a2.46,2.46,0,0,0-1.3,2.25,2.54,2.54,0,0,0,2.59,2.44,2.47,2.47,0,0,0,2.43-2.55"/></clipPath><clipPath id="clip-path-15"><path class="cls-1" d="M-87.28-101.43l-.14-4.28L-91-103.57a2.45,2.45,0,0,0-1.3,2.25,2.54,2.54,0,0,0,2.59,2.44,2.47,2.47,0,0,0,2.43-2.55"/></clipPath><clipPath id="clip-path-16"><path class="cls-1" d="M-94.81-96.43l-.14-4.28-3.59,2.14a2.46,2.46,0,0,0-1.3,2.25,2.54,2.54,0,0,0,2.6,2.44,2.47,2.47,0,0,0,2.43-2.55"/></clipPath><clipPath id="clip-path-17"><path class="cls-1" d="M-88.53-90.85l-.14-4.28L-92.26-93a2.45,2.45,0,0,0-1.3,2.25A2.54,2.54,0,0,0-91-88.3a2.47,2.47,0,0,0,2.43-2.55"/></clipPath><clipPath id="clip-path-18"><path class="cls-1" d="M-79.81-97.68l-.14-4.28-3.59,2.14a2.46,2.46,0,0,0-1.3,2.25,2.54,2.54,0,0,0,2.6,2.44,2.47,2.47,0,0,0,2.43-2.55"/></clipPath><clipPath id="clip-path-19"><path class="cls-1" d="M-98.66,19.2a.52.52,0,0,1-.32-.11.52.52,0,0,1-.14-.65l4.32-8h-6.35a.71.71,0,0,1-.7-.37,1,1,0,0,1,.06-.88L-97.31-2c.1-.08,8.63.49,8.75.49a.52.52,0,0,1,.32.11.52.52,0,0,1,.14.65l-4.77,7.5h6.29a.52.52,0,0,1,.49.34.52.52,0,0,1-.15.58L-98.32,19.08a.52.52,0,0,1-.34.13"/></clipPath><clipPath id="clip-path-20"><path class="cls-1" d="M-81.05-20.8a10,10,0,0,0-3,.45,8.12,8.12,0,0,0-7.66-5.45,8.12,8.12,0,0,0-7.87,6.15,5.57,5.57,0,0,0-3.38-1.15,5.63,5.63,0,0,0-5.62,5.62,5.59,5.59,0,0,0,.42,2.13,6.22,6.22,0,0,0-1.67-.26A6.25,6.25,0,0,0-116.05-7,6.25,6.25,0,0,0-109.8-.8h28.75a10,10,0,0,0,10-10,10,10,0,0,0-10-10"/></clipPath><clipPath id="clip-path-21"><path class="cls-1" d="M47.5-60.63A22.5,22.5,0,0,1,25-38.13,22.5,22.5,0,0,1,2.5-60.63,22.5,22.5,0,0,1,25-83.13a22.5,22.5,0,0,1,22.5,22.5"/></clipPath><clipPath id="clip-path-22"><path class="cls-1" d="M20-72.5a4.37,4.37,0,0,1-4.37,4.38,4.37,4.37,0,0,1-4.37-4.37,4.37,4.37,0,0,1,4.38-4.37A4.37,4.37,0,0,1,20-72.5"/></clipPath><clipPath id="clip-path-23"><path class="cls-1" d="M31.25-63.13a3.75,3.75,0,0,1-3.75,3.75,3.75,3.75,0,0,1-3.75-3.75,3.75,3.75,0,0,1,3.75-3.75,3.75,3.75,0,0,1,3.75,3.75"/></clipPath><clipPath id="clip-path-24"><path class="cls-1" d="M33.75-48.75a4.37,4.37,0,0,1-4.37,4.38A4.37,4.37,0,0,1,25-48.75a4.37,4.37,0,0,1,4.38-4.37,4.37,4.37,0,0,1,4.38,4.38"/></clipPath><clipPath id="clip-path-25"><path class="cls-1" d="M31.25-75.63a2.5,2.5,0,0,1-2.5,2.5,2.5,2.5,0,0,1-2.5-2.5,2.5,2.5,0,0,1,2.5-2.5,2.5,2.5,0,0,1,2.5,2.5"/></clipPath><clipPath id="clip-path-26"><path class="cls-1" d="M5-60.63a1.25,1.25,0,0,0,1.25,1.25A1.25,1.25,0,0,0,7.5-60.63a1.25,1.25,0,0,0-1.25-1.25A1.25,1.25,0,0,0,5-60.63"/></clipPath><clipPath id="clip-path-27"><path class="cls-1" d="M38.75-71.88A1.25,1.25,0,0,0,40-70.63a1.25,1.25,0,0,0,1.25-1.25A1.25,1.25,0,0,0,40-73.13a1.25,1.25,0,0,0-1.25,1.25"/></clipPath><clipPath id="clip-path-28"><path class="cls-1" d="M20-44.38a1.25,1.25,0,0,0,1.25,1.25,1.25,1.25,0,0,0,1.25-1.25,1.25,1.25,0,0,0-1.25-1.25A1.25,1.25,0,0,0,20-44.38"/></clipPath><clipPath id="clip-path-29"><path class="cls-1" d="M45-59.38a2.5,2.5,0,0,1-2.5,2.5,2.5,2.5,0,0,1-2.5-2.5,2.5,2.5,0,0,1,2.5-2.5,2.5,2.5,0,0,1,2.5,2.5"/></clipPath><clipPath id="clip-path-30"><path class="cls-1" d="M17.5-54.38a2.5,2.5,0,0,1-2.5,2.5,2.5,2.5,0,0,1-2.5-2.5,2.5,2.5,0,0,1,2.5-2.5,2.5,2.5,0,0,1,2.5,2.5"/></clipPath><clipPath id="clip-path-31"><rect class="cls-2" x="90.73" y="-80.88" width="49.07" height="53"/></clipPath><clipPath id="clip-path-32"><path class="cls-1" d="M37.5,7.5a10,10,0,0,0-3,.45A8.12,8.12,0,0,0,19,8.65a5.61,5.61,0,0,0-8.58,6.6A6.22,6.22,0,0,0,8.75,15a6.25,6.25,0,0,0,0,12.5H37.5a10,10,0,0,0,0-20"/></clipPath><clipPath id="clip-path-33"><rect class="cls-2" x="-239.5" y="-937.5" width="1440" height="2760"/></clipPath><clipPath id="clip-path-34"><path class="cls-1" d="M7.5,41.88a.63.63,0,0,1-1.25,0v-7.5a.63.63,0,0,1,1.25,0Z"/></clipPath><clipPath id="clip-path-36"><path class="cls-1" d="M10.43,39.46a.62.62,0,1,1-.63,1.08l-6.5-3.75a.62.62,0,1,1,.63-1.08Z"/></clipPath><clipPath id="clip-path-38"><path class="cls-1" d="M3.31,39.46a.62.62,0,1,0,.63,1.08l6.49-3.75a.62.62,0,1,0-.63-1.08Z"/></clipPath><clipPath id="clip-path-40"><path class="cls-1" d="M20,46.88a.63.63,0,0,1-1.25,0v-7.5a.63.63,0,0,1,1.25,0Z"/></clipPath><clipPath id="clip-path-42"><path class="cls-1" d="M22.93,44.46a.62.62,0,1,1-.62,1.08l-6.49-3.75a.62.62,0,1,1,.63-1.08Z"/></clipPath><clipPath id="clip-path-44"><path class="cls-1" d="M15.81,44.46a.62.62,0,1,0,.63,1.08l6.49-3.75a.62.62,0,1,0-.62-1.08Z"/></clipPath><clipPath id="clip-path-46"><path class="cls-1" d="M17.5,36.88a.63.63,0,0,1-1.25,0v-7.5a.63.63,0,0,1,1.25,0Z"/></clipPath><clipPath id="clip-path-48"><path class="cls-1" d="M20.43,34.46a.62.62,0,1,1-.62,1.08l-6.49-3.75a.62.62,0,1,1,.63-1.08Z"/></clipPath><clipPath id="clip-path-50"><path class="cls-1" d="M13.31,34.46a.62.62,0,1,0,.63,1.08l6.49-3.75a.62.62,0,1,0-.62-1.08Z"/></clipPath><clipPath id="clip-path-52"><path class="cls-1" d="M30,38.13a.63.63,0,0,1-1.25,0v-7.5a.63.63,0,0,1,1.25,0Z"/></clipPath><clipPath id="clip-path-54"><path class="cls-1" d="M32.93,35.71a.62.62,0,1,1-.62,1.08L25.81,33A.62.62,0,1,1,26.44,32Z"/></clipPath><clipPath id="clip-path-56"><path class="cls-1" d="M25.81,35.71a.62.62,0,1,0,.63,1.08L32.93,33A.62.62,0,1,0,32.31,32Z"/></clipPath><clipPath id="clip-path-58"><path class="cls-1" d="M42.5,36.88a.63.63,0,0,1-1.25,0v-7.5a.63.63,0,0,1,1.25,0Z"/></clipPath><clipPath id="clip-path-60"><path class="cls-1" d="M45.43,34.46a.62.62,0,0,1-.62,1.08l-6.49-3.75a.62.62,0,1,1,.63-1.08Z"/></clipPath><clipPath id="clip-path-62"><path class="cls-1" d="M38.31,34.46a.62.62,0,1,0,.63,1.08l6.49-3.75a.62.62,0,0,0-.62-1.08Z"/></clipPath><clipPath id="clip-path-64"><path class="cls-1" d="M36.25,46.88a.63.63,0,0,1-1.25,0v-7.5a.63.63,0,0,1,1.25,0Z"/></clipPath><clipPath id="clip-path-66"><path class="cls-1" d="M39.18,44.46a.62.62,0,0,1-.62,1.08l-6.5-3.75a.62.62,0,1,1,.63-1.08Z"/></clipPath><clipPath id="clip-path-68"><path class="cls-1" d="M32.06,44.46a.62.62,0,1,0,.63,1.08l6.49-3.75a.62.62,0,0,0-.62-1.08Z"/></clipPath><clipPath id="clip-path-70"><path class="cls-1" d="M140.57,73.15S145,65.91,143.9,59.3c-.89-5.13-4.23-6.17-7.55-10.73-3.91-5.37-4.3-9.33-3.12-11.25,1.41-2.29,6.67-5,18.44-5,7.55,0,11,2,12.13,4.27,1.41,2.76.57,12-2.76,18.33-5.49,10.46-11.56,17.45-17.19,19.9-4.44,1.93-3.28-1.67-3.28-1.67"/></clipPath><clipPath id="clip-path-71"><path class="cls-1" d="M133.23,37.32c-1.18,1.92-.78,5.88,3.13,11.25,3.32,4.56,6.66,5.6,7.55,10.73.67,3.85-.57,7.92-1.73,10.64h8.41a62.62,62.62,0,0,0,10.46-15c3.33-6.35,4.17-15.57,2.76-18.33L156.35,34H138.54C135.59,34.93,133.93,36.18,133.23,37.32Z"/></clipPath><clipPath id="clip-path-72"><path class="cls-1" d="M161.22,77.32a2.57,2.57,0,0,0,0-.31,2.7,2.7,0,0,0-1.93-2.58,4.84,4.84,0,0,0-9-2,3.61,3.61,0,0,0-5.11,1.34,3.58,3.58,0,0,0-2.6-1.12,3.54,3.54,0,0,0-1,.17,3.4,3.4,0,0,0-1.46-.63,5.12,5.12,0,0,0-9.8.81,3.35,3.35,0,0,0-.39,0,3.09,3.09,0,0,0-2.82,4.37Z"/></clipPath></defs><title>weather</title><g class="cls-34"><g class="cls-35"><rect class="cls-36" x="-2.5" y="-2.5" width="55" height="35"/></g></g><g class="cls-37"><g class="cls-35"><rect class="cls-38" x="1.25" y="28.75" width="11.25" height="18.75"/></g></g><g class="cls-39"><g class="cls-35"><rect class="cls-38" x="-2" y="30.63" width="17.75" height="15"/></g></g><g class="cls-40"><g class="cls-35"><rect class="cls-38" x="-2" y="30.63" width="17.75" height="15"/></g></g><g class="cls-41"><g class="cls-35"><rect class="cls-38" x="13.75" y="33.75" width="11.25" height="18.75"/></g></g><g class="cls-42"><g class="cls-35"><rect class="cls-38" x="10.5" y="35.63" width="17.75" height="15"/></g></g><g class="cls-43"><g class="cls-35"><rect class="cls-38" x="10.5" y="35.63" width="17.75" height="15"/></g></g><g class="cls-44"><g class="cls-35"><rect class="cls-38" x="11.25" y="23.75" width="11.25" height="18.75"/></g></g><g class="cls-45"><g class="cls-35"><rect class="cls-38" x="8" y="25.63" width="17.75" height="15"/></g></g><g class="cls-46"><g class="cls-35"><rect class="cls-38" x="8" y="25.63" width="17.75" height="15"/></g></g><g class="cls-47"><g class="cls-35"><rect class="cls-38" x="23.75" y="25" width="11.25" height="18.75"/></g></g><g class="cls-48"><g class="cls-35"><rect class="cls-38" x="20.5" y="26.88" width="17.75" height="15"/></g></g><g class="cls-49"><g class="cls-35"><rect class="cls-38" x="20.5" y="26.88" width="17.75" height="15"/></g></g><g class="cls-50"><g class="cls-35"><rect class="cls-38" x="36.25" y="23.75" width="11.25" height="18.75"/></g></g><g class="cls-51"><g class="cls-35"><rect class="cls-38" x="33" y="25.63" width="17.75" height="15"/></g></g><g class="cls-52"><g class="cls-35"><rect class="cls-38" x="33" y="25.63" width="17.75" height="15"/></g></g><g class="cls-53"><g class="cls-35"><rect class="cls-38" x="30" y="33.75" width="11.25" height="18.75"/></g></g><g class="cls-54"><g class="cls-35"><rect class="cls-38" x="26.75" y="35.63" width="17.75" height="15"/></g></g><g class="cls-55"><g class="cls-35"><rect class="cls-38" x="26.75" y="35.63" width="17.75" height="15"/></g></g></svg>