<svg id="Layer_1" data-name="Layer 1" xmlns="http://www.w3.org/2000/svg" xmlns:xlink="http://www.w3.org/1999/xlink" viewBox="0 0 50 50"><defs><style>.cls-1,.cls-2{fill:none;}.cls-1{clip-rule:evenodd;}.cls-3{clip-path:url(#clip-path);}.cls-4{clip-path:url(#clip-path-2);}.cls-5{clip-path:url(#clip-path-3);}.cls-6{clip-path:url(#clip-path-4);}.cls-7{clip-path:url(#clip-path-5);}.cls-8{clip-path:url(#clip-path-6);}.cls-9{clip-path:url(#clip-path-7);}.cls-10{clip-path:url(#clip-path-8);}.cls-11{clip-path:url(#clip-path-9);}.cls-12{clip-path:url(#clip-path-10);}.cls-13{clip-path:url(#clip-path-11);}.cls-14{clip-path:url(#clip-path-12);}.cls-15{clip-path:url(#clip-path-13);}.cls-16{clip-path:url(#clip-path-14);}.cls-17{clip-path:url(#clip-path-15);}.cls-18{clip-path:url(#clip-path-16);}.cls-19{clip-path:url(#clip-path-17);}.cls-20{clip-path:url(#clip-path-18);}.cls-21{clip-path:url(#clip-path-19);}.cls-22{clip-path:url(#clip-path-20);}.cls-23{clip-path:url(#clip-path-21);}.cls-24{clip-path:url(#clip-path-22);}.cls-25{clip-path:url(#clip-path-23);}.cls-26{clip-path:url(#clip-path-24);}.cls-27{clip-path:url(#clip-path-25);}.cls-28{clip-path:url(#clip-path-26);}.cls-29{clip-path:url(#clip-path-27);}.cls-30{clip-path:url(#clip-path-28);}.cls-31{clip-path:url(#clip-path-29);}.cls-32{clip-path:url(#clip-path-30);}.cls-33{clip-path:url(#clip-path-31);}.cls-34{clip-path:url(#clip-path-32);}.cls-35{clip-path:url(#clip-path-33);}.cls-36{clip-path:url(#clip-path-34);}.cls-37{clip-path:url(#clip-path-35);}.cls-38{clip-path:url(#clip-path-36);}.cls-39{clip-path:url(#clip-path-37);}.cls-40{clip-path:url(#clip-path-38);}.cls-41{clip-path:url(#clip-path-39);}.cls-42{clip-path:url(#clip-path-40);}.cls-43{clip-path:url(#clip-path-41);}.cls-44{clip-path:url(#clip-path-42);}.cls-45{clip-path:url(#clip-path-43);}.cls-46{clip-path:url(#clip-path-44);}.cls-47{clip-path:url(#clip-path-45);}.cls-48{clip-path:url(#clip-path-46);}.cls-49{clip-path:url(#clip-path-47);}.cls-50{clip-path:url(#clip-path-48);}.cls-51{clip-path:url(#clip-path-49);}.cls-52{clip-path:url(#clip-path-50);}.cls-53{clip-path:url(#clip-path-51);}.cls-54{clip-path:url(#clip-path-52);}.cls-55{fill:#2b2e42;}.cls-56{clip-path:url(#clip-path-53);}.cls-57{isolation:isolate;}.cls-58{clip-path:url(#clip-path-55);}.cls-59{clip-path:url(#clip-path-56);}.cls-60{clip-path:url(#clip-path-57);}.cls-61{fill:#8d99ad;}.cls-62{clip-path:url(#clip-path-58);}.cls-63{clip-path:url(#clip-path-60);}.cls-64{clip-path:url(#clip-path-62);}.cls-65{clip-path:url(#clip-path-64);}.cls-66{clip-path:url(#clip-path-66);}.cls-67{clip-path:url(#clip-path-68);}.cls-68{clip-path:url(#clip-path-70);}.cls-69{fill:#e8ebf6;}</style><clipPath id="clip-path"><path class="cls-1" d="M-335.27-28.12a2.45,2.45,0,0,1,2.5-2.5,2.45,2.45,0,0,1,2.5,2.5v2.5a2.45,2.45,0,0,1-2.5,2.5,2.45,2.45,0,0,1-2.5-2.5Z"/></clipPath><clipPath id="clip-path-2"><path class="cls-1" d="M-312.77-10.62a2.45,2.45,0,0,1,2.5,2.5,2.45,2.45,0,0,1-2.5,2.5h-2.5a2.45,2.45,0,0,1-2.5-2.5,2.45,2.45,0,0,1,2.5-2.5Z"/></clipPath><clipPath id="clip-path-3"><path class="cls-1" d="M-350.27-10.62a2.45,2.45,0,0,1,2.5,2.5,2.45,2.45,0,0,1-2.5,2.5h-2.5a2.45,2.45,0,0,1-2.5-2.5,2.45,2.45,0,0,1,2.5-2.5Z"/></clipPath><clipPath id="clip-path-4"><path class="cls-1" d="M-343.87-21.5a2.45,2.45,0,0,1,0,3.53,2.45,2.45,0,0,1-3.54,0l-1.77-1.77a2.45,2.45,0,0,1,0-3.54,2.45,2.45,0,0,1,3.54,0Z"/></clipPath><clipPath id="clip-path-5"><path class="cls-1" d="M-317.62,4.75a2.45,2.45,0,0,1,0,3.53,2.45,2.45,0,0,1-3.53,0l-1.77-1.77a2.45,2.45,0,0,1,0-3.53,2.45,2.45,0,0,1,3.53,0Z"/></clipPath><clipPath id="clip-path-6"><path class="cls-1" d="M-318.14-18a2.45,2.45,0,0,1-3.53,0,2.45,2.45,0,0,1,0-3.53l1.77-1.77a2.45,2.45,0,0,1,3.53,0,2.45,2.45,0,0,1,0,3.53Z"/></clipPath><clipPath id="clip-path-7"><path class="cls-1" d="M-344.39,8.28a2.45,2.45,0,0,1-3.54,0,2.45,2.45,0,0,1,0-3.53L-346.16,3a2.45,2.45,0,0,1,3.53,0,2.45,2.45,0,0,1,0,3.54Z"/></clipPath><clipPath id="clip-path-8"><path class="cls-1" d="M-335.27,9.38a2.45,2.45,0,0,1,2.5-2.5,2.45,2.45,0,0,1,2.5,2.5v2.5a2.45,2.45,0,0,1-2.5,2.5,2.45,2.45,0,0,1-2.5-2.5Z"/></clipPath><clipPath id="clip-path-9"><path class="cls-1" d="M-320.27-8.12a12.5,12.5,0,0,0-12.5-12.5,12.5,12.5,0,0,0-12.5,12.5,12.5,12.5,0,0,0,12.5,12.5,12.5,12.5,0,0,0,12.5-12.5"/></clipPath><clipPath id="clip-path-10"><path class="cls-1" d="M-333.19-129-345-108.3a14,14,0,0,0-.1,14.82,14.51,14.51,0,0,0,19.76,4.82,14.1,14.1,0,0,0,4.89-19.5Z"/></clipPath><clipPath id="clip-path-11"><path class="cls-1" d="M-201.72-157.45a10,10,0,0,0-3,.45,8.12,8.12,0,0,0-7.66-5.45,8.12,8.12,0,0,0-7.87,6.15,5.57,5.57,0,0,0-3.38-1.15,5.63,5.63,0,0,0-5.62,5.63,5.59,5.59,0,0,0,.42,2.13,6.22,6.22,0,0,0-1.67-.26,6.25,6.25,0,0,0-6.25,6.25,6.25,6.25,0,0,0,6.25,6.25h28.75a10,10,0,0,0,10-10,10,10,0,0,0-10-10"/></clipPath><clipPath id="clip-path-12"><path class="cls-1" d="M-221.72-131.25l-.14-4.28-3.59,2.14a2.46,2.46,0,0,0-1.3,2.25,2.54,2.54,0,0,0,2.6,2.44,2.47,2.47,0,0,0,2.43-2.55"/></clipPath><clipPath id="clip-path-13"><path class="cls-1" d="M-224.19-121.92l-.14-4.28-3.59,2.13a2.46,2.46,0,0,0-1.3,2.25,2.54,2.54,0,0,0,2.59,2.44,2.47,2.47,0,0,0,2.43-2.55"/></clipPath><clipPath id="clip-path-14"><path class="cls-1" d="M-230.44-127.5l-.14-4.28-3.59,2.14a2.46,2.46,0,0,0-1.3,2.25,2.54,2.54,0,0,0,2.59,2.44,2.47,2.47,0,0,0,2.43-2.55"/></clipPath><clipPath id="clip-path-15"><path class="cls-1" d="M-207.94-131.25l-.14-4.28-3.59,2.14a2.45,2.45,0,0,0-1.3,2.25,2.54,2.54,0,0,0,2.59,2.44,2.47,2.47,0,0,0,2.43-2.55"/></clipPath><clipPath id="clip-path-16"><path class="cls-1" d="M-215.47-126.25l-.14-4.28-3.59,2.14a2.46,2.46,0,0,0-1.3,2.25,2.54,2.54,0,0,0,2.6,2.44,2.47,2.47,0,0,0,2.43-2.55"/></clipPath><clipPath id="clip-path-17"><path class="cls-1" d="M-209.19-120.67l-.14-4.28-3.59,2.13a2.45,2.45,0,0,0-1.3,2.25,2.54,2.54,0,0,0,2.59,2.44,2.47,2.47,0,0,0,2.43-2.55"/></clipPath><clipPath id="clip-path-18"><path class="cls-1" d="M-200.47-127.5l-.14-4.28-3.59,2.14a2.46,2.46,0,0,0-1.3,2.25,2.54,2.54,0,0,0,2.6,2.44,2.47,2.47,0,0,0,2.43-2.55"/></clipPath><clipPath id="clip-path-19"><path class="cls-1" d="M-219.32-10.62a.52.52,0,0,1-.32-.11.52.52,0,0,1-.14-.65l4.32-8h-6.35a.71.71,0,0,1-.7-.37,1,1,0,0,1,.06-.88L-218-31.87c.1-.08,8.63.49,8.75.49a.52.52,0,0,1,.32.11.52.52,0,0,1,.14.65l-4.77,7.5h6.29a.52.52,0,0,1,.49.34.52.52,0,0,1-.15.58L-219-10.75a.52.52,0,0,1-.34.13"/></clipPath><clipPath id="clip-path-20"><path class="cls-1" d="M-201.72-50.62a10,10,0,0,0-3,.45,8.12,8.12,0,0,0-7.66-5.45,8.12,8.12,0,0,0-7.87,6.15,5.57,5.57,0,0,0-3.38-1.15A5.63,5.63,0,0,0-229.22-45a5.59,5.59,0,0,0,.42,2.13,6.22,6.22,0,0,0-1.67-.26,6.25,6.25,0,0,0-6.25,6.25,6.25,6.25,0,0,0,6.25,6.25h28.75a10,10,0,0,0,10-10,10,10,0,0,0-10-10"/></clipPath><clipPath id="clip-path-21"><path class="cls-1" d="M-73.16-90.45a22.5,22.5,0,0,1-22.5,22.5,22.5,22.5,0,0,1-22.5-22.5,22.5,22.5,0,0,1,22.5-22.5,22.5,22.5,0,0,1,22.5,22.5"/></clipPath><clipPath id="clip-path-22"><path class="cls-1" d="M-100.66-102.32A4.37,4.37,0,0,1-105-97.95a4.37,4.37,0,0,1-4.37-4.38A4.37,4.37,0,0,1-105-106.7a4.37,4.37,0,0,1,4.38,4.38"/></clipPath><clipPath id="clip-path-23"><path class="cls-1" d="M-89.41-92.95a3.75,3.75,0,0,1-3.75,3.75,3.75,3.75,0,0,1-3.75-3.75,3.75,3.75,0,0,1,3.75-3.75,3.75,3.75,0,0,1,3.75,3.75"/></clipPath><clipPath id="clip-path-24"><path class="cls-1" d="M-86.91-78.57a4.37,4.37,0,0,1-4.37,4.38,4.37,4.37,0,0,1-4.37-4.37,4.37,4.37,0,0,1,4.38-4.37,4.37,4.37,0,0,1,4.38,4.38"/></clipPath><clipPath id="clip-path-25"><path class="cls-1" d="M-89.41-105.45a2.5,2.5,0,0,1-2.5,2.5,2.5,2.5,0,0,1-2.5-2.5,2.5,2.5,0,0,1,2.5-2.5,2.5,2.5,0,0,1,2.5,2.5"/></clipPath><clipPath id="clip-path-26"><path class="cls-1" d="M-115.66-90.45a1.25,1.25,0,0,0,1.25,1.25,1.25,1.25,0,0,0,1.25-1.25,1.25,1.25,0,0,0-1.25-1.25,1.25,1.25,0,0,0-1.25,1.25"/></clipPath><clipPath id="clip-path-27"><path class="cls-1" d="M-81.91-101.7a1.25,1.25,0,0,0,1.25,1.25,1.25,1.25,0,0,0,1.25-1.25,1.25,1.25,0,0,0-1.25-1.25,1.25,1.25,0,0,0-1.25,1.25"/></clipPath><clipPath id="clip-path-28"><path class="cls-1" d="M-100.66-74.2a1.25,1.25,0,0,0,1.25,1.25,1.25,1.25,0,0,0,1.25-1.25,1.25,1.25,0,0,0-1.25-1.25,1.25,1.25,0,0,0-1.25,1.25"/></clipPath><clipPath id="clip-path-29"><path class="cls-1" d="M-75.66-89.2a2.5,2.5,0,0,1-2.5,2.5,2.5,2.5,0,0,1-2.5-2.5,2.5,2.5,0,0,1,2.5-2.5,2.5,2.5,0,0,1,2.5,2.5"/></clipPath><clipPath id="clip-path-30"><path class="cls-1" d="M-103.16-84.2a2.5,2.5,0,0,1-2.5,2.5,2.5,2.5,0,0,1-2.5-2.5,2.5,2.5,0,0,1,2.5-2.5,2.5,2.5,0,0,1,2.5,2.5"/></clipPath><clipPath id="clip-path-31"><rect class="cls-2" x="-29.94" y="-110.7" width="49.07" height="53"/></clipPath><clipPath id="clip-path-32"><path class="cls-1" d="M-83.16-22.32a10,10,0,0,0-3,.45,8.12,8.12,0,0,0-7.66-5.45,8.12,8.12,0,0,0-7.87,6.15A5.57,5.57,0,0,0-105-22.32a5.63,5.63,0,0,0-5.62,5.63,5.59,5.59,0,0,0,.42,2.13,6.22,6.22,0,0,0-1.67-.26,6.25,6.25,0,0,0-6.25,6.25,6.25,6.25,0,0,0,6.25,6.25h28.75a10,10,0,0,0,10-10,10,10,0,0,0-10-10"/></clipPath><clipPath id="clip-path-33"><path class="cls-1" d="M-113.16,12.05a.63.63,0,0,1-.62.63.63.63,0,0,1-.62-.62V4.55a.63.63,0,0,1,.63-.62.63.63,0,0,1,.63.63Z"/></clipPath><clipPath id="clip-path-34"><path class="cls-1" d="M-110.23,9.64a.63.63,0,0,1,.23.85.62.62,0,0,1-.85.23L-117.35,7a.62.62,0,0,1-.23-.85.62.62,0,0,1,.85-.23Z"/></clipPath><clipPath id="clip-path-35"><path class="cls-1" d="M-117.35,9.64a.63.63,0,0,0-.23.85.62.62,0,0,0,.85.23L-110.23,7a.62.62,0,0,0,.23-.85.62.62,0,0,0-.85-.23Z"/></clipPath><clipPath id="clip-path-36"><path class="cls-1" d="M-100.66,17.05a.63.63,0,0,1-.62.63.63.63,0,0,1-.62-.62V9.55a.63.63,0,0,1,.63-.62.63.63,0,0,1,.63.63Z"/></clipPath><clipPath id="clip-path-37"><path class="cls-1" d="M-97.73,14.64a.63.63,0,0,1,.23.85.62.62,0,0,1-.85.23L-104.85,12a.62.62,0,0,1-.23-.85.62.62,0,0,1,.85-.23Z"/></clipPath><clipPath id="clip-path-38"><path class="cls-1" d="M-104.85,14.64a.63.63,0,0,0-.23.85.62.62,0,0,0,.85.23L-97.73,12a.62.62,0,0,0,.23-.85.62.62,0,0,0-.85-.23Z"/></clipPath><clipPath id="clip-path-39"><path class="cls-1" d="M-103.16,7.05a.63.63,0,0,1-.62.63.63.63,0,0,1-.62-.62V-.45a.63.63,0,0,1,.63-.63.63.63,0,0,1,.63.63Z"/></clipPath><clipPath id="clip-path-40"><path class="cls-1" d="M-100.23,4.64a.63.63,0,0,1,.23.85.62.62,0,0,1-.85.23L-107.35,2a.62.62,0,0,1-.23-.85.62.62,0,0,1,.85-.23Z"/></clipPath><clipPath id="clip-path-41"><path class="cls-1" d="M-107.35,4.64a.63.63,0,0,0-.23.85.62.62,0,0,0,.85.23L-100.23,2a.62.62,0,0,0,.23-.85.62.62,0,0,0-.85-.23Z"/></clipPath><clipPath id="clip-path-42"><path class="cls-1" d="M-90.66,8.3a.63.63,0,0,1-.62.63.63.63,0,0,1-.62-.62V.8a.63.63,0,0,1,.63-.62.63.63,0,0,1,.63.63Z"/></clipPath><clipPath id="clip-path-43"><path class="cls-1" d="M-87.73,5.89a.63.63,0,0,1,.23.85.62.62,0,0,1-.85.23l-6.49-3.75a.62.62,0,0,1-.23-.85.62.62,0,0,1,.85-.23Z"/></clipPath><clipPath id="clip-path-44"><path class="cls-1" d="M-94.85,5.89a.63.63,0,0,0-.23.85.62.62,0,0,0,.85.23l6.49-3.75a.62.62,0,0,0,.23-.85.62.62,0,0,0-.85-.23Z"/></clipPath><clipPath id="clip-path-45"><path class="cls-1" d="M-78.16,7.05a.63.63,0,0,1-.62.63.63.63,0,0,1-.62-.62V-.45a.63.63,0,0,1,.63-.63.63.63,0,0,1,.63.63Z"/></clipPath><clipPath id="clip-path-46"><path class="cls-1" d="M-75.23,4.64a.63.63,0,0,1,.23.85.62.62,0,0,1-.85.23L-82.35,2a.62.62,0,0,1-.23-.85.62.62,0,0,1,.85-.23Z"/></clipPath><clipPath id="clip-path-47"><path class="cls-1" d="M-82.35,4.64a.63.63,0,0,0-.23.85.62.62,0,0,0,.85.23L-75.23,2A.62.62,0,0,0-75,1.12a.62.62,0,0,0-.85-.23Z"/></clipPath><clipPath id="clip-path-48"><path class="cls-1" d="M-84.41,17.05a.63.63,0,0,1-.62.63.63.63,0,0,1-.62-.62V9.55A.63.63,0,0,1-85,8.93a.63.63,0,0,1,.63.63Z"/></clipPath><clipPath id="clip-path-49"><path class="cls-1" d="M-81.48,14.64a.63.63,0,0,1,.23.85.62.62,0,0,1-.85.23L-88.6,12a.62.62,0,0,1-.23-.85.62.62,0,0,1,.85-.23Z"/></clipPath><clipPath id="clip-path-50"><path class="cls-1" d="M-88.6,14.64a.63.63,0,0,0-.23.85.62.62,0,0,0,.85.23L-81.48,12a.62.62,0,0,0,.23-.85.62.62,0,0,0-.85-.23Z"/></clipPath><clipPath id="clip-path-51"><path class="cls-1" d="M19.91,43.33s4.48-7.24,3.33-13.85c-.89-5.13-4.23-6.17-7.55-10.73-3.91-5.37-4.3-9.33-3.12-11.25C14,5.21,19.23,2.5,31,2.5c7.55,0,11,2,12.13,4.27,1.41,2.76.57,12-2.76,18.33C34.89,35.56,28.81,42.55,23.19,45c-4.44,1.93-3.28-1.67-3.28-1.67"/></clipPath><clipPath id="clip-path-52"><rect class="cls-2" x="-304.25" y="-936.5" width="1440" height="2760"/></clipPath><clipPath id="clip-path-53"><path class="cls-1" d="M12.56,7.5c-1.18,1.92-.78,5.88,3.13,11.25,3.32,4.56,6.66,5.6,7.55,10.73.67,3.85-.57,7.92-1.73,10.64h8.41a62.62,62.62,0,0,0,10.46-15c3.33-6.35,4.17-15.57,2.76-18.33L35.68,4.15H17.87C14.93,5.11,13.26,6.36,12.56,7.5Z"/></clipPath><clipPath id="clip-path-55"><rect class="cls-2" x="8.75" y="3.5" width="38" height="37"/></clipPath><clipPath id="clip-path-56"><path class="cls-1" d="M22,12.62c-6.63,0-10.48-1.07-11.73-3.24a3.22,3.22,0,0,1,.07-3.29,1.25,1.25,0,0,1,2.1,1.35.7.7,0,0,0,0,.72c.36.59,2.41,2.46,13.6,1.85,5.71-.31,9.79-1.6,9.7-2.5s-3.4-1.45-9.72-1c-1.95.14-4.89.44-5-.25s2.64-1.09,4.74-1.33c6.93-.78,11-.41,12.22,1.32a2.1,2.1,0,0,1,.13,2.17c-1,2.12-5.86,3.76-12,4.09q-2.26.12-4.19.12"/></clipPath><clipPath id="clip-path-57"><rect class="cls-2" x="10.75" y="3.5" width="34" height="37"/></clipPath><clipPath id="clip-path-58"><path class="cls-1" d="M23.85,22.29C14.62,22.29,12,18,11.91,17.77a1.25,1.25,0,0,1,2.16-1.26c.08.12,3.5,5.36,17.21,2.73.67-.13,3.83-1,4-.18.14.67-2.21,1.61-2.87,1.8a30.85,30.85,0,0,1-8.56,1.43"/></clipPath><clipPath id="clip-path-60"><path class="cls-1" d="M21.49,16.21c-.06-.76,2.6-.89,3.36-1C38.34,14,41.53,10.91,42.72,9a3.63,3.63,0,0,0,.49-3.16,1.26,1.26,0,0,1,.67-1.63,1.24,1.24,0,0,1,1.63.65,6.09,6.09,0,0,1-.62,5.39C42.36,14.4,36,16.39,25,17.05c0,0-3.41.33-3.5-.84"/></clipPath><clipPath id="clip-path-62"><path class="cls-1" d="M28.29,31.21c-7.87,0-8.55-3.86-8.61-4.35a1.25,1.25,0,0,1,2.48-.33c0,.14.81,2.78,9.23,2.67.7,0,2.62-.26,2.69.43S32.66,30.9,31.65,31a31.34,31.34,0,0,1-3.36.2"/></clipPath><clipPath id="clip-path-64"><path class="cls-1" d="M27.78,24.77c.06-.74,2.09-.86,2.77-.92,10-.88,12.59-6,12.72-6.25a1.25,1.25,0,0,1,2.19,1.2c-.15.28-3.72,6.49-14.85,6.94,0,0-2.92.13-2.83-1"/></clipPath><clipPath id="clip-path-66"><path class="cls-1" d="M26.08,40.12c-2-.1-3.45-.56-4.47-1.68a5.13,5.13,0,0,1-1.26-4,1.25,1.25,0,0,1,2.49.25,3.17,3.17,0,0,0,.69,2.18,3.63,3.63,0,0,0,2.69,1.35c1.5.12,2.09.19,2.13.68.08,1-1.6,1.2-2.27,1.17"/></clipPath><clipPath id="clip-path-68"><path class="cls-1" d="M29.42,35.81c-.39,0-.8,0-1.22,0-.69,0-2.19-.46-2.16-1.15s1.65-.75,2.32-.8c7.66-.55,9.68-4.07,9.77-4.24a1.26,1.26,0,0,1,1.68-.53,1.24,1.24,0,0,1,.55,1.66c-.11.22-2.65,5.1-10.94,5.1"/></clipPath><clipPath id="clip-path-70"><path class="cls-1" d="M40.55,47.5a2.57,2.57,0,0,0,0-.31,2.7,2.7,0,0,0-1.93-2.58,4.84,4.84,0,0,0-9-2,3.61,3.61,0,0,0-5.11,1.34A3.58,3.58,0,0,0,22,42.81,3.54,3.54,0,0,0,21,43a3.4,3.4,0,0,0-1.46-.63,5.12,5.12,0,0,0-9.8.81,3.35,3.35,0,0,0-.39,0A3.09,3.09,0,0,0,6.49,47.5Z"/></clipPath></defs><title>weather</title><g class="cls-53"><g class="cls-54"><rect class="cls-55" x="6.98" y="-2.5" width="41.81" height="53.07"/></g></g><g class="cls-56"><g class="cls-54"><g class="cls-57"><g class="cls-58"><g class="cls-59"><g class="cls-60"><rect class="cls-61" x="4.83" y="-0.47" width="38.54" height="18.09"/></g></g><g class="cls-62"><g class="cls-60"><rect class="cls-61" x="6.74" y="10.9" width="33.54" height="16.39"/></g></g><g class="cls-63"><g class="cls-60"><rect class="cls-61" x="16.49" y="-0.85" width="34.38" height="22.95"/></g></g><g class="cls-64"><g class="cls-60"><rect class="cls-61" x="14.67" y="20.47" width="24.42" height="15.74"/></g></g><g class="cls-65"><g class="cls-60"><rect class="cls-61" x="22.78" y="11.96" width="27.83" height="18.79"/></g></g><g class="cls-66"><g class="cls-60"><rect class="cls-61" x="15.32" y="28.36" width="18.03" height="16.76"/></g></g><g class="cls-67"><g class="cls-60"><rect class="cls-61" x="21.04" y="23.91" width="24.45" height="16.9"/></g></g></g></g></g></g><g class="cls-68"><g class="cls-54"><rect class="cls-69" x="1.21" y="34.06" width="44.37" height="18.44"/></g></g></svg>