<?xml version="1.0" encoding="utf-8"?>
<!-- Generator: Adobe Illustrator 21.0.1, SVG Export Plug-In . SVG Version: 6.00 Build 0)  -->
<svg version="1.1" id="Layer_1" xmlns="http://www.w3.org/2000/svg" xmlns:xlink="http://www.w3.org/1999/xlink" x="0px" y="0px"
	 viewBox="0 0 60 60" style="enable-background:new 0 0 60 60;" xml:space="preserve">
<style type="text/css">
	.st0{fill:#1B98FC;}
	.st1{fill:#FBF5F3;}
</style>
<g>
	<path class="st0" d="M30,47.3l-7.5-7.5l7.5-7.5l7.5,7.5L30,47.3z M26.5,39.8l3.5,3.5l3.5-3.5L30,36.3L26.5,39.8z"/>
</g>
<g>
	<path class="st1" d="M30,55.5L14.3,39.8L30,24.1l15.7,15.7L30,55.5z M18.3,39.8L30,51.5l11.7-11.7L30,28.1L18.3,39.8z"/>
</g>
<g>
	<polygon class="st1" points="49.8,37.8 30,18 10.2,37.8 8.2,35.8 30,14 51.8,35.8 	"/>
</g>
<g>
	<polygon class="st1" points="56.4,34.9 30,8.5 3.6,34.9 1.6,32.9 30,4.5 58.4,32.9 	"/>
</g>
</svg>
