<?xml version="1.0" encoding="utf-8"?>
<!-- Generator: Adobe Illustrator 21.0.2, SVG Export Plug-In . SVG Version: 6.00 Build 0)  -->
<svg version="1.1" id="Layer_1" xmlns="http://www.w3.org/2000/svg" xmlns:xlink="http://www.w3.org/1999/xlink" x="0px" y="0px"
	 viewBox="0 0 50 50" style="enable-background:new 0 0 50 50;" xml:space="preserve">
<style type="text/css">
	.st0{fill:#27BEBA;}
	.st1{fill:#1B98FC;}
	.st2{fill:#FDBB4F;}
	.st3{fill:#F84D53;}
	.st4{fill:#EE45FC;}
	.st5{clip-path:url(#SVGID_2_);}
	.st6{fill:#2B2E41;}
</style>
<g>
	<polygon class="st0" points="2.4,7.6 12.4,7.6 6.5,14 	"/>
	<polygon class="st1" points="6.6,14.8 13.7,7.6 23.1,7.6 10.5,20.6 	"/>
	<polygon class="st2" points="10.8,21 24.7,7.8 24.7,18.1 14.9,27.2 	"/>
	<polygon class="st3" points="15.2,27.8 24.7,18.4 24.7,28.9 19.6,34.2 	"/>
	<polygon class="st4" points="20,34.2 24.7,29.6 24.7,41.1 	"/>
	<g>
		<defs>
			<polygon id="SVGID_1_" points="25,7.6 1.8,7.6 25,42.4 25,7.6 			"/>
		</defs>
		<clipPath id="SVGID_2_">
			<use xlink:href="#SVGID_1_"  style="overflow:visible;"/>
		</clipPath>
		<g class="st5">
			<g>
				<g>
					
						<rect x="-56.2" y="-11.6" transform="matrix(0.7071 -0.7071 0.7071 0.7071 3.8656 -11.7979)" class="st6" width="87.7" height="2.1"/>
				</g>
				<g>
					
						<rect x="-50.7" y="-6.2" transform="matrix(0.7071 -0.7071 0.7071 0.7071 1.5993 -6.3262)" class="st6" width="87.7" height="2.1"/>
				</g>
				<g>
					
						<rect x="-45.2" y="-0.7" transform="matrix(0.7071 -0.7071 0.7071 0.7071 -0.6672 -0.8547)" class="st6" width="87.7" height="2.1"/>
				</g>
				<g>
					
						<rect x="-39.7" y="4.8" transform="matrix(0.7071 -0.7071 0.7071 0.7071 -2.9336 4.6168)" class="st6" width="87.7" height="2.1"/>
				</g>
				<g>
					
						<rect x="-34.3" y="10.3" transform="matrix(0.7071 -0.7071 0.7071 0.7071 -5.1999 10.0884)" class="st6" width="87.7" height="2.1"/>
				</g>
				<g>
					
						<rect x="-28.8" y="15.7" transform="matrix(0.7071 -0.7071 0.7071 0.7071 -7.4664 15.5599)" class="st6" width="87.7" height="2.1"/>
				</g>
				<g>
					
						<rect x="-23.3" y="21.2" transform="matrix(0.7071 -0.7071 0.7071 0.7071 -9.7329 21.0314)" class="st6" width="87.7" height="2.1"/>
				</g>
				<g>
					
						<rect x="-17.9" y="26.7" transform="matrix(0.7071 -0.7071 0.7071 0.7071 -11.999 26.503)" class="st6" width="87.7" height="2.1"/>
				</g>
				<g>
					
						<rect x="-12.4" y="32.1" transform="matrix(0.7071 -0.7071 0.7071 0.7071 -14.2656 31.9745)" class="st6" width="87.7" height="2.1"/>
				</g>
				<g>
					
						<rect x="-6.9" y="37.6" transform="matrix(0.7071 -0.7071 0.7071 0.7071 -16.5321 37.446)" class="st6" width="87.7" height="2.1"/>
				</g>
				<g>
					
						<rect x="-1.4" y="43.1" transform="matrix(0.7071 -0.7071 0.7071 0.7071 -18.7982 42.9176)" class="st6" width="87.7" height="2.1"/>
				</g>
				<g>
					
						<rect x="4" y="48.6" transform="matrix(0.7071 -0.7071 0.7071 0.7071 -21.0647 48.3891)" class="st6" width="87.7" height="2.1"/>
				</g>
				<g>
					
						<rect x="9.5" y="54" transform="matrix(0.7071 -0.7071 0.7071 0.7071 -23.3312 53.8607)" class="st6" width="87.7" height="2.1"/>
				</g>
				<g>
					
						<rect x="15" y="59.5" transform="matrix(0.7071 -0.7071 0.7071 0.7071 -25.5973 59.3322)" class="st6" width="87.7" height="2.1"/>
				</g>
			</g>
		</g>
	</g>
	<g>
		<path class="st6" d="M25,43.5c-0.3,0-0.7-0.2-0.9-0.5L0.9,8.2C0.7,7.8,0.7,7.4,0.9,7.1c0.2-0.3,0.5-0.6,0.9-0.6l0,0l46.4,0
			c0.4,0,0.7,0.2,0.9,0.6c0.2,0.3,0.2,0.8-0.1,1.1L42,18.8c-0.3,0.5-1,0.6-1.5,0.3c-0.5-0.3-0.6-1-0.3-1.5l6-9l-20.2,0v33.8
			c0,0.5-0.3,0.9-0.8,1C25.2,43.5,25.1,43.5,25,43.5z M3.8,8.6l20.2,30.3V8.6L3.8,8.6z"/>
	</g>
</g>
</svg>
