<svg id="Layer_1" data-name="Layer 1" xmlns="http://www.w3.org/2000/svg" xmlns:xlink="http://www.w3.org/1999/xlink" viewBox="0 0 50 50"><defs><style>.cls-1,.cls-2{fill:none;}.cls-1{clip-rule:evenodd;}.cls-3{clip-path:url(#clip-path);}.cls-4{clip-path:url(#clip-path-2);}.cls-5{fill:#fdbb4f;}.cls-6{clip-path:url(#clip-path-3);}.cls-7{clip-path:url(#clip-path-5);}.cls-8{clip-path:url(#clip-path-7);}.cls-9{clip-path:url(#clip-path-9);}.cls-10{clip-path:url(#clip-path-11);}.cls-11{clip-path:url(#clip-path-13);}.cls-12{clip-path:url(#clip-path-15);}.cls-13{clip-path:url(#clip-path-17);}.cls-14{clip-path:url(#clip-path-19);}.cls-15{clip-path:url(#clip-path-20);}.cls-16{clip-path:url(#clip-path-21);}.cls-17{clip-path:url(#clip-path-22);}.cls-18{clip-path:url(#clip-path-23);}.cls-19{clip-path:url(#clip-path-24);}.cls-20{clip-path:url(#clip-path-25);}.cls-21{clip-path:url(#clip-path-26);}.cls-22{clip-path:url(#clip-path-27);}.cls-23{clip-path:url(#clip-path-28);}.cls-24{clip-path:url(#clip-path-29);}.cls-25{clip-path:url(#clip-path-30);}.cls-26{clip-path:url(#clip-path-31);}.cls-27{clip-path:url(#clip-path-32);}.cls-28{clip-path:url(#clip-path-33);}.cls-29{clip-path:url(#clip-path-34);}.cls-30{clip-path:url(#clip-path-35);}.cls-31{clip-path:url(#clip-path-36);}.cls-32{clip-path:url(#clip-path-37);}.cls-33{clip-path:url(#clip-path-38);}.cls-34{clip-path:url(#clip-path-39);}.cls-35{clip-path:url(#clip-path-40);}.cls-36{clip-path:url(#clip-path-41);}.cls-37{clip-path:url(#clip-path-42);}.cls-38{clip-path:url(#clip-path-43);}.cls-39{clip-path:url(#clip-path-44);}.cls-40{clip-path:url(#clip-path-45);}.cls-41{clip-path:url(#clip-path-46);}.cls-42{clip-path:url(#clip-path-47);}.cls-43{clip-path:url(#clip-path-48);}</style><clipPath id="clip-path"><path class="cls-1" d="M22.5,5a2.5,2.5,0,0,1,5,0V7.5a2.5,2.5,0,0,1-5,0Z"/></clipPath><clipPath id="clip-path-2"><rect class="cls-2" x="-99.5" y="-866.5" width="1440" height="2760"/></clipPath><clipPath id="clip-path-3"><path class="cls-1" d="M45,22.5a2.5,2.5,0,0,1,0,5H42.5a2.5,2.5,0,0,1,0-5Z"/></clipPath><clipPath id="clip-path-5"><path class="cls-1" d="M7.5,22.5a2.5,2.5,0,0,1,0,5H5a2.5,2.5,0,0,1,0-5Z"/></clipPath><clipPath id="clip-path-7"><path class="cls-1" d="M13.9,11.62a2.5,2.5,0,0,1-3.54,3.53L8.6,13.38a2.5,2.5,0,0,1,3.54-3.54Z"/></clipPath><clipPath id="clip-path-9"><path class="cls-1" d="M40.15,37.87a2.5,2.5,0,1,1-3.53,3.53l-1.77-1.77a2.5,2.5,0,0,1,3.53-3.53Z"/></clipPath><clipPath id="clip-path-11"><path class="cls-1" d="M39.63,15.15a2.5,2.5,0,1,1-3.53-3.53l1.77-1.77a2.5,2.5,0,1,1,3.53,3.53Z"/></clipPath><clipPath id="clip-path-13"><path class="cls-1" d="M13.39,41.4a2.5,2.5,0,1,1-3.54-3.53l1.77-1.77a2.5,2.5,0,0,1,3.53,3.54Z"/></clipPath><clipPath id="clip-path-15"><path class="cls-1" d="M22.5,42.5a2.5,2.5,0,0,1,5,0V45a2.5,2.5,0,0,1-5,0Z"/></clipPath><clipPath id="clip-path-17"><path class="cls-1" d="M37.5,25A12.5,12.5,0,1,0,25,37.5,12.5,12.5,0,0,0,37.5,25"/></clipPath><clipPath id="clip-path-19"><path class="cls-1" d="M24.58-95.89,12.77-75.18a14,14,0,0,0-.1,14.82,14.51,14.51,0,0,0,19.76,4.82A14.1,14.1,0,0,0,37.33-75Z"/></clipPath><clipPath id="clip-path-20"><path class="cls-1" d="M156.06-124.33a10,10,0,0,0-3,.45,8.12,8.12,0,0,0-7.66-5.45,8.12,8.12,0,0,0-7.87,6.15,5.57,5.57,0,0,0-3.38-1.15,5.63,5.63,0,0,0-5.62,5.63,5.59,5.59,0,0,0,.42,2.13,6.22,6.22,0,0,0-1.67-.26,6.25,6.25,0,0,0-6.25,6.25,6.25,6.25,0,0,0,6.25,6.25h28.75a10,10,0,0,0,10-10,10,10,0,0,0-10-10"/></clipPath><clipPath id="clip-path-21"><path class="cls-1" d="M136.06-98.13l-.14-4.28-3.59,2.14A2.46,2.46,0,0,0,131-98a2.54,2.54,0,0,0,2.6,2.44,2.47,2.47,0,0,0,2.43-2.55"/></clipPath><clipPath id="clip-path-22"><path class="cls-1" d="M133.58-88.8l-.14-4.28-3.59,2.13a2.46,2.46,0,0,0-1.3,2.25,2.54,2.54,0,0,0,2.59,2.44,2.47,2.47,0,0,0,2.43-2.55"/></clipPath><clipPath id="clip-path-23"><path class="cls-1" d="M127.33-94.38l-.14-4.28-3.59,2.14a2.46,2.46,0,0,0-1.3,2.25,2.54,2.54,0,0,0,2.6,2.44,2.47,2.47,0,0,0,2.43-2.55"/></clipPath><clipPath id="clip-path-24"><path class="cls-1" d="M149.83-98.13l-.14-4.28-3.59,2.14a2.45,2.45,0,0,0-1.3,2.25,2.54,2.54,0,0,0,2.59,2.44,2.47,2.47,0,0,0,2.43-2.55"/></clipPath><clipPath id="clip-path-25"><path class="cls-1" d="M142.31-93.13l-.14-4.28-3.59,2.14a2.46,2.46,0,0,0-1.3,2.25,2.54,2.54,0,0,0,2.6,2.44,2.47,2.47,0,0,0,2.43-2.55"/></clipPath><clipPath id="clip-path-26"><path class="cls-1" d="M148.58-87.55l-.14-4.28-3.59,2.13a2.45,2.45,0,0,0-1.3,2.25A2.54,2.54,0,0,0,146.15-85a2.47,2.47,0,0,0,2.43-2.55"/></clipPath><clipPath id="clip-path-27"><path class="cls-1" d="M157.31-94.38l-.14-4.28-3.59,2.14a2.46,2.46,0,0,0-1.3,2.25,2.54,2.54,0,0,0,2.6,2.44,2.47,2.47,0,0,0,2.43-2.55"/></clipPath><clipPath id="clip-path-28"><path class="cls-1" d="M138.45,22.5a.52.52,0,0,1-.46-.76l4.32-8H136a.71.71,0,0,1-.7-.37,1,1,0,0,1,.06-.88l4.49-11.25c.1-.08,8.63.49,8.75.49a.52.52,0,0,1,.46.76L144.25,10h6.29a.52.52,0,0,1,.34.91L138.79,22.37a.52.52,0,0,1-.34.13"/></clipPath><clipPath id="clip-path-29"><path class="cls-1" d="M156.06-17.5a10,10,0,0,0-3,.45,8.12,8.12,0,0,0-7.66-5.45,8.12,8.12,0,0,0-7.87,6.15,5.57,5.57,0,0,0-3.38-1.15,5.63,5.63,0,0,0-5.62,5.63A5.59,5.59,0,0,0,129-9.74a6.22,6.22,0,0,0-1.67-.26,6.25,6.25,0,0,0-6.25,6.25,6.25,6.25,0,0,0,6.25,6.25h28.75a10,10,0,0,0,10-10,10,10,0,0,0-10-10"/></clipPath><clipPath id="clip-path-30"><path class="cls-1" d="M274.61,10.8a10,10,0,0,0-3,.45,8.12,8.12,0,0,0-15.54.7,5.61,5.61,0,0,0-8.58,6.6,6.24,6.24,0,1,0-1.67,12.24h28.75a10,10,0,1,0,0-20"/></clipPath><clipPath id="clip-path-31"><path class="cls-1" d="M244.61,45.17a.63.63,0,0,1-1.25,0v-7.5a.62.62,0,1,1,1.25,0Z"/></clipPath><clipPath id="clip-path-32"><path class="cls-1" d="M247.55,42.76a.62.62,0,1,1-.62,1.08l-6.5-3.75a.62.62,0,1,1,.63-1.08Z"/></clipPath><clipPath id="clip-path-33"><path class="cls-1" d="M240.43,42.76a.62.62,0,1,0,.63,1.08l6.49-3.75a.62.62,0,1,0-.62-1.08Z"/></clipPath><clipPath id="clip-path-34"><path class="cls-1" d="M257.11,50.17a.63.63,0,0,1-1.25,0v-7.5a.62.62,0,0,1,1.25,0Z"/></clipPath><clipPath id="clip-path-35"><path class="cls-1" d="M260,47.76a.62.62,0,1,1-.62,1.08l-6.49-3.75a.62.62,0,1,1,.63-1.08Z"/></clipPath><clipPath id="clip-path-36"><path class="cls-1" d="M252.93,47.76a.62.62,0,1,0,.63,1.08L260,45.09a.62.62,0,1,0-.62-1.08Z"/></clipPath><clipPath id="clip-path-37"><path class="cls-1" d="M254.61,40.17a.63.63,0,0,1-1.25,0v-7.5a.62.62,0,1,1,1.25,0Z"/></clipPath><clipPath id="clip-path-38"><path class="cls-1" d="M257.55,37.76a.62.62,0,1,1-.62,1.08l-6.49-3.75a.62.62,0,1,1,.63-1.08Z"/></clipPath><clipPath id="clip-path-39"><path class="cls-1" d="M250.43,37.76a.62.62,0,1,0,.63,1.08l6.49-3.75a.62.62,0,0,0-.62-1.08Z"/></clipPath><clipPath id="clip-path-40"><path class="cls-1" d="M267.11,41.42a.63.63,0,1,1-1.25,0v-7.5a.63.63,0,0,1,1.25,0Z"/></clipPath><clipPath id="clip-path-41"><path class="cls-1" d="M270,39a.62.62,0,1,1-.62,1.08l-6.49-3.75a.62.62,0,1,1,.63-1.08Z"/></clipPath><clipPath id="clip-path-42"><path class="cls-1" d="M262.93,39a.62.62,0,1,0,.63,1.08L270,36.34a.62.62,0,1,0-.62-1.08Z"/></clipPath><clipPath id="clip-path-43"><path class="cls-1" d="M279.61,40.17a.63.63,0,1,1-1.25,0v-7.5a.63.63,0,0,1,1.25,0Z"/></clipPath><clipPath id="clip-path-44"><path class="cls-1" d="M282.55,37.76a.62.62,0,0,1-.62,1.08l-6.49-3.75a.62.62,0,1,1,.63-1.08Z"/></clipPath><clipPath id="clip-path-45"><path class="cls-1" d="M275.43,37.76a.62.62,0,1,0,.63,1.08l6.49-3.75a.62.62,0,0,0-.62-1.08Z"/></clipPath><clipPath id="clip-path-46"><path class="cls-1" d="M273.36,50.17a.63.63,0,1,1-1.25,0v-7.5a.63.63,0,0,1,1.25,0Z"/></clipPath><clipPath id="clip-path-47"><path class="cls-1" d="M276.3,47.76a.62.62,0,0,1-.62,1.08l-6.5-3.75A.62.62,0,1,1,269.8,44Z"/></clipPath><clipPath id="clip-path-48"><path class="cls-1" d="M269.18,47.76a.62.62,0,1,0,.63,1.08l6.49-3.75a.62.62,0,0,0-.62-1.08Z"/></clipPath></defs><title>weather</title><g class="cls-3"><g class="cls-4"><rect class="cls-5" x="17.5" y="-2.5" width="15" height="17.5"/></g></g><g class="cls-6"><g class="cls-4"><rect class="cls-5" x="35" y="17.5" width="17.5" height="15"/></g></g><g class="cls-7"><g class="cls-4"><rect class="cls-5" x="-2.5" y="17.5" width="17.5" height="15"/></g></g><g class="cls-8"><g class="cls-4"><rect class="cls-5" x="2.81" y="4.06" width="16.87" height="16.87"/></g></g><g class="cls-9"><g class="cls-4"><rect class="cls-5" x="29.06" y="30.31" width="16.87" height="16.87"/></g></g><g class="cls-10"><g class="cls-4"><rect class="cls-5" x="30.31" y="4.06" width="16.87" height="16.87"/></g></g><g class="cls-11"><g class="cls-4"><rect class="cls-5" x="4.06" y="30.31" width="16.87" height="16.87"/></g></g><g class="cls-12"><g class="cls-4"><rect class="cls-5" x="17.5" y="35" width="15" height="17.5"/></g></g><g class="cls-13"><g class="cls-4"><rect class="cls-5" x="7.5" y="7.5" width="35" height="35"/></g></g></svg>