<svg id="Layer_1" data-name="Layer 1" xmlns="http://www.w3.org/2000/svg" xmlns:xlink="http://www.w3.org/1999/xlink" viewBox="0 0 50 50"><defs><style>.cls-1,.cls-2{fill:none;}.cls-1{clip-rule:evenodd;}.cls-3{clip-path:url(#clip-path);}.cls-4{clip-path:url(#clip-path-2);}.cls-5{clip-path:url(#clip-path-3);}.cls-6{clip-path:url(#clip-path-4);}.cls-7{clip-path:url(#clip-path-5);}.cls-8{clip-path:url(#clip-path-6);}.cls-9{clip-path:url(#clip-path-7);}.cls-10{clip-path:url(#clip-path-8);}.cls-11{clip-path:url(#clip-path-9);}.cls-12{clip-path:url(#clip-path-10);}.cls-13{clip-path:url(#clip-path-11);}.cls-14{fill:#1b98fc;}.cls-15{clip-path:url(#clip-path-12);}.cls-16{clip-path:url(#clip-path-13);}.cls-17{clip-path:url(#clip-path-14);}.cls-18{clip-path:url(#clip-path-15);}.cls-19{clip-path:url(#clip-path-16);}.cls-20{clip-path:url(#clip-path-17);}.cls-21{clip-path:url(#clip-path-18);}.cls-22{clip-path:url(#clip-path-19);}.cls-23{clip-path:url(#clip-path-20);}.cls-24{clip-path:url(#clip-path-21);}.cls-25{clip-path:url(#clip-path-22);}.cls-26{clip-path:url(#clip-path-23);}.cls-27{clip-path:url(#clip-path-24);}.cls-28{clip-path:url(#clip-path-25);}.cls-29{clip-path:url(#clip-path-26);}.cls-30{clip-path:url(#clip-path-27);}.cls-31{clip-path:url(#clip-path-28);}.cls-32{clip-path:url(#clip-path-29);}.cls-33{clip-path:url(#clip-path-30);}.cls-34{clip-path:url(#clip-path-31);}.cls-35{clip-path:url(#clip-path-32);}.cls-36{clip-path:url(#clip-path-33);}.cls-37{clip-path:url(#clip-path-34);}.cls-38{clip-path:url(#clip-path-35);}.cls-39{clip-path:url(#clip-path-36);}.cls-40{clip-path:url(#clip-path-37);}.cls-41{clip-path:url(#clip-path-38);}.cls-42{clip-path:url(#clip-path-39);}.cls-43{clip-path:url(#clip-path-40);}</style><clipPath id="clip-path"><path class="cls-1" d="M22.5,104.69a2.5,2.5,0,1,1,5,0v2.5a2.5,2.5,0,0,1-5,0Z"/></clipPath><clipPath id="clip-path-2"><path class="cls-1" d="M45,122.19a2.5,2.5,0,0,1,0,5H42.5a2.5,2.5,0,1,1,0-5Z"/></clipPath><clipPath id="clip-path-3"><path class="cls-1" d="M7.5,122.19a2.5,2.5,0,0,1,0,5H5a2.5,2.5,0,1,1,0-5Z"/></clipPath><clipPath id="clip-path-4"><path class="cls-1" d="M13.9,111.31a2.5,2.5,0,1,1-3.54,3.53L8.6,113.08a2.5,2.5,0,0,1,3.54-3.54Z"/></clipPath><clipPath id="clip-path-5"><path class="cls-1" d="M40.15,137.56a2.5,2.5,0,1,1-3.53,3.53l-1.77-1.77a2.5,2.5,0,0,1,3.53-3.53Z"/></clipPath><clipPath id="clip-path-6"><path class="cls-1" d="M39.63,114.85a2.5,2.5,0,1,1-3.53-3.53l1.77-1.77a2.5,2.5,0,1,1,3.53,3.53Z"/></clipPath><clipPath id="clip-path-7"><path class="cls-1" d="M13.39,141.1a2.5,2.5,0,1,1-3.54-3.53l1.77-1.77a2.5,2.5,0,0,1,3.53,3.54Z"/></clipPath><clipPath id="clip-path-8"><path class="cls-1" d="M22.5,142.19a2.5,2.5,0,0,1,5,0v2.5a2.5,2.5,0,0,1-5,0Z"/></clipPath><clipPath id="clip-path-9"><path class="cls-1" d="M37.5,124.69A12.5,12.5,0,1,0,25,137.19a12.5,12.5,0,0,0,12.5-12.5"/></clipPath><clipPath id="clip-path-10"><path class="cls-1" d="M24.58,3.81,12.77,24.51a14,14,0,0,0-.1,14.82,14.51,14.51,0,0,0,19.76,4.82,14.1,14.1,0,0,0,4.89-19.5Z"/></clipPath><clipPath id="clip-path-11"><rect class="cls-2" x="-164.4" y="-865.81" width="1440" height="2760"/></clipPath><clipPath id="clip-path-12"><path class="cls-1" d="M156.06-24.64a10,10,0,0,0-3,.45,8.12,8.12,0,0,0-7.66-5.45,8.12,8.12,0,0,0-7.87,6.15,5.57,5.57,0,0,0-3.38-1.15A5.63,5.63,0,0,0,128.56-19a5.59,5.59,0,0,0,.42,2.13,6.22,6.22,0,0,0-1.67-.26,6.25,6.25,0,0,0-6.25,6.25,6.25,6.25,0,0,0,6.25,6.25h28.75a10,10,0,0,0,10-10,10,10,0,0,0-10-10"/></clipPath><clipPath id="clip-path-13"><path class="cls-1" d="M136.06,1.56l-.14-4.28L132.33-.58A2.46,2.46,0,0,0,131,1.67a2.54,2.54,0,0,0,2.6,2.44,2.47,2.47,0,0,0,2.43-2.55"/></clipPath><clipPath id="clip-path-14"><path class="cls-1" d="M133.58,10.89l-.14-4.28-3.59,2.13a2.46,2.46,0,0,0-1.3,2.25,2.54,2.54,0,0,0,2.59,2.44,2.47,2.47,0,0,0,2.43-2.55"/></clipPath><clipPath id="clip-path-15"><path class="cls-1" d="M127.33,5.31,127.19,1,123.6,3.17a2.46,2.46,0,0,0-1.3,2.25,2.54,2.54,0,0,0,2.6,2.44,2.47,2.47,0,0,0,2.43-2.55"/></clipPath><clipPath id="clip-path-16"><path class="cls-1" d="M149.83,1.56l-.14-4.28L146.1-.58a2.45,2.45,0,0,0-1.3,2.25,2.54,2.54,0,0,0,2.59,2.44,2.47,2.47,0,0,0,2.43-2.55"/></clipPath><clipPath id="clip-path-17"><path class="cls-1" d="M142.31,6.56l-.14-4.28-3.59,2.14a2.46,2.46,0,0,0-1.3,2.25,2.54,2.54,0,0,0,2.6,2.44,2.47,2.47,0,0,0,2.43-2.55"/></clipPath><clipPath id="clip-path-18"><path class="cls-1" d="M148.58,12.14l-.14-4.28L144.85,10a2.45,2.45,0,0,0-1.3,2.25,2.54,2.54,0,0,0,2.59,2.44,2.47,2.47,0,0,0,2.43-2.55"/></clipPath><clipPath id="clip-path-19"><path class="cls-1" d="M157.31,5.31,157.16,1l-3.59,2.14a2.46,2.46,0,0,0-1.3,2.25,2.54,2.54,0,0,0,2.6,2.44,2.47,2.47,0,0,0,2.43-2.55"/></clipPath><clipPath id="clip-path-20"><path class="cls-1" d="M138.45,122.19a.52.52,0,0,1-.46-.76l4.32-8H136a.71.71,0,0,1-.7-.37,1,1,0,0,1,.06-.88l4.49-11.25c.1-.08,8.63.49,8.75.49a.52.52,0,0,1,.46.76l-4.77,7.5h6.29a.52.52,0,0,1,.34.92l-12.08,11.46a.52.52,0,0,1-.34.13"/></clipPath><clipPath id="clip-path-21"><path class="cls-1" d="M156.06,82.19a10,10,0,0,0-3,.45,8.12,8.12,0,0,0-15.54.7,5.61,5.61,0,0,0-8.58,6.6,6.24,6.24,0,1,0-1.67,12.24h28.75a10,10,0,1,0,0-20"/></clipPath><clipPath id="clip-path-22"><path class="cls-1" d="M274.61,110.49a10,10,0,0,0-3,.45,8.12,8.12,0,0,0-15.54.7,5.61,5.61,0,0,0-8.58,6.6,6.24,6.24,0,1,0-1.67,12.24h28.75a10,10,0,0,0,0-20"/></clipPath><clipPath id="clip-path-23"><path class="cls-1" d="M244.61,144.87a.63.63,0,0,1-1.25,0v-7.5a.63.63,0,0,1,1.25,0Z"/></clipPath><clipPath id="clip-path-24"><path class="cls-1" d="M247.55,142.45a.62.62,0,1,1-.62,1.08l-6.5-3.75a.62.62,0,1,1,.63-1.08Z"/></clipPath><clipPath id="clip-path-25"><path class="cls-1" d="M240.43,142.45a.62.62,0,1,0,.63,1.08l6.49-3.75a.62.62,0,1,0-.62-1.08Z"/></clipPath><clipPath id="clip-path-26"><path class="cls-1" d="M257.11,149.87a.63.63,0,0,1-1.25,0v-7.5a.63.63,0,1,1,1.25,0Z"/></clipPath><clipPath id="clip-path-27"><path class="cls-1" d="M260,147.45a.62.62,0,1,1-.62,1.08l-6.49-3.75a.62.62,0,1,1,.63-1.08Z"/></clipPath><clipPath id="clip-path-28"><path class="cls-1" d="M252.93,147.45a.62.62,0,1,0,.63,1.08l6.49-3.75a.62.62,0,1,0-.62-1.08Z"/></clipPath><clipPath id="clip-path-29"><path class="cls-1" d="M254.61,139.87a.63.63,0,0,1-1.25,0v-7.5a.63.63,0,0,1,1.25,0Z"/></clipPath><clipPath id="clip-path-30"><path class="cls-1" d="M257.55,137.45a.62.62,0,1,1-.62,1.08l-6.49-3.75a.62.62,0,1,1,.63-1.08Z"/></clipPath><clipPath id="clip-path-31"><path class="cls-1" d="M250.43,137.45a.62.62,0,1,0,.63,1.08l6.49-3.75a.62.62,0,0,0-.62-1.08Z"/></clipPath><clipPath id="clip-path-32"><path class="cls-1" d="M267.11,141.12a.63.63,0,0,1-1.25,0v-7.5a.63.63,0,1,1,1.25,0Z"/></clipPath><clipPath id="clip-path-33"><path class="cls-1" d="M270,138.7a.62.62,0,1,1-.62,1.08L262.93,136a.62.62,0,1,1,.63-1.08Z"/></clipPath><clipPath id="clip-path-34"><path class="cls-1" d="M262.93,138.7a.62.62,0,1,0,.63,1.08L270,136a.62.62,0,1,0-.62-1.08Z"/></clipPath><clipPath id="clip-path-35"><path class="cls-1" d="M279.61,139.87a.63.63,0,0,1-1.25,0v-7.5a.63.63,0,1,1,1.25,0Z"/></clipPath><clipPath id="clip-path-36"><path class="cls-1" d="M282.55,137.45a.62.62,0,0,1-.62,1.08l-6.49-3.75a.62.62,0,1,1,.63-1.08Z"/></clipPath><clipPath id="clip-path-37"><path class="cls-1" d="M275.43,137.45a.62.62,0,1,0,.63,1.08l6.49-3.75a.62.62,0,0,0-.62-1.08Z"/></clipPath><clipPath id="clip-path-38"><path class="cls-1" d="M273.36,149.87a.63.63,0,0,1-1.25,0v-7.5a.63.63,0,1,1,1.25,0Z"/></clipPath><clipPath id="clip-path-39"><path class="cls-1" d="M276.3,147.45a.62.62,0,0,1-.62,1.08l-6.5-3.75a.62.62,0,1,1,.63-1.08Z"/></clipPath><clipPath id="clip-path-40"><path class="cls-1" d="M269.18,147.45a.62.62,0,1,0,.63,1.08l6.49-3.75a.62.62,0,0,0-.62-1.08Z"/></clipPath></defs><title>weather</title><g class="cls-12"><g class="cls-13"><rect class="cls-14" x="5.6" y="-1.19" width="38.79" height="52.39"/></g></g></svg>