<svg id="Layer_1" data-name="Layer 1" xmlns="http://www.w3.org/2000/svg" xmlns:xlink="http://www.w3.org/1999/xlink" viewBox="0 0 50 50"><defs><style>.cls-1,.cls-2{fill:none;}.cls-1{clip-rule:evenodd;}.cls-3{clip-path:url(#clip-path);}.cls-4{clip-path:url(#clip-path-2);}.cls-5{clip-path:url(#clip-path-3);}.cls-6{clip-path:url(#clip-path-4);}.cls-7{clip-path:url(#clip-path-5);}.cls-8{clip-path:url(#clip-path-6);}.cls-9{clip-path:url(#clip-path-7);}.cls-10{clip-path:url(#clip-path-8);}.cls-11{clip-path:url(#clip-path-9);}.cls-12{clip-path:url(#clip-path-10);}.cls-13{clip-path:url(#clip-path-11);}.cls-14{clip-path:url(#clip-path-12);}.cls-15{clip-path:url(#clip-path-13);}.cls-16{clip-path:url(#clip-path-14);}.cls-17{clip-path:url(#clip-path-15);}.cls-18{clip-path:url(#clip-path-16);}.cls-19{clip-path:url(#clip-path-17);}.cls-20{clip-path:url(#clip-path-18);}.cls-21{clip-path:url(#clip-path-19);}.cls-22{clip-path:url(#clip-path-20);}.cls-23{clip-path:url(#clip-path-21);}.cls-24{clip-path:url(#clip-path-22);}.cls-25{fill:#2b2e41;}.cls-26{clip-path:url(#clip-path-23);}.cls-27{fill:#8d99ad;}.cls-28{clip-path:url(#clip-path-25);}.cls-29{clip-path:url(#clip-path-27);}.cls-30{clip-path:url(#clip-path-29);}.cls-31{clip-path:url(#clip-path-31);}.cls-32{clip-path:url(#clip-path-33);}.cls-33{clip-path:url(#clip-path-35);}.cls-34{clip-path:url(#clip-path-37);}.cls-35{clip-path:url(#clip-path-39);}.cls-36{clip-path:url(#clip-path-41);}.cls-37{clip-path:url(#clip-path-42);}.cls-38{clip-path:url(#clip-path-43);}.cls-39{clip-path:url(#clip-path-44);}.cls-40{clip-path:url(#clip-path-45);}.cls-41{clip-path:url(#clip-path-46);}.cls-42{clip-path:url(#clip-path-47);}.cls-43{clip-path:url(#clip-path-48);}.cls-44{clip-path:url(#clip-path-49);}.cls-45{clip-path:url(#clip-path-50);}.cls-46{clip-path:url(#clip-path-51);}.cls-47{clip-path:url(#clip-path-52);}.cls-48{clip-path:url(#clip-path-53);}.cls-49{clip-path:url(#clip-path-54);}.cls-50{clip-path:url(#clip-path-55);}.cls-51{clip-path:url(#clip-path-56);}.cls-52{clip-path:url(#clip-path-57);}.cls-53{clip-path:url(#clip-path-58);}.cls-54{clip-path:url(#clip-path-59);}.cls-55{clip-path:url(#clip-path-60);}.cls-56{clip-path:url(#clip-path-61);}.cls-57{clip-path:url(#clip-path-62);}.cls-58{clip-path:url(#clip-path-63);}</style><clipPath id="clip-path"><path class="cls-1" d="M-214.61,87.33a2.45,2.45,0,0,1,2.5-2.5,2.45,2.45,0,0,1,2.5,2.5v2.5a2.45,2.45,0,0,1-2.5,2.5,2.45,2.45,0,0,1-2.5-2.5Z"/></clipPath><clipPath id="clip-path-2"><path class="cls-1" d="M-192.11,104.83a2.45,2.45,0,0,1,2.5,2.5,2.45,2.45,0,0,1-2.5,2.5h-2.5a2.45,2.45,0,0,1-2.5-2.5,2.45,2.45,0,0,1,2.5-2.5Z"/></clipPath><clipPath id="clip-path-3"><path class="cls-1" d="M-229.61,104.83a2.45,2.45,0,0,1,2.5,2.5,2.45,2.45,0,0,1-2.5,2.5h-2.5a2.45,2.45,0,0,1-2.5-2.5,2.45,2.45,0,0,1,2.5-2.5Z"/></clipPath><clipPath id="clip-path-4"><path class="cls-1" d="M-223.21,93.95a2.45,2.45,0,0,1,0,3.53,2.45,2.45,0,0,1-3.54,0l-1.77-1.77a2.45,2.45,0,0,1,0-3.54,2.45,2.45,0,0,1,3.54,0Z"/></clipPath><clipPath id="clip-path-5"><path class="cls-1" d="M-197,120.2a2.45,2.45,0,0,1,0,3.53,2.45,2.45,0,0,1-3.53,0l-1.77-1.77a2.45,2.45,0,0,1,0-3.53,2.45,2.45,0,0,1,3.53,0Z"/></clipPath><clipPath id="clip-path-6"><path class="cls-1" d="M-197.48,97.48a2.45,2.45,0,0,1-3.53,0,2.45,2.45,0,0,1,0-3.53l1.77-1.77a2.45,2.45,0,0,1,3.53,0,2.45,2.45,0,0,1,0,3.53Z"/></clipPath><clipPath id="clip-path-7"><path class="cls-1" d="M-223.73,123.73a2.45,2.45,0,0,1-3.54,0,2.45,2.45,0,0,1,0-3.53l1.77-1.77a2.45,2.45,0,0,1,3.53,0,2.45,2.45,0,0,1,0,3.54Z"/></clipPath><clipPath id="clip-path-8"><path class="cls-1" d="M-214.61,124.83a2.45,2.45,0,0,1,2.5-2.5,2.45,2.45,0,0,1,2.5,2.5v2.5a2.45,2.45,0,0,1-2.5,2.5,2.45,2.45,0,0,1-2.5-2.5Z"/></clipPath><clipPath id="clip-path-9"><path class="cls-1" d="M-199.61,107.33a12.5,12.5,0,0,0-12.5-12.5,12.5,12.5,0,0,0-12.5,12.5,12.5,12.5,0,0,0,12.5,12.5,12.5,12.5,0,0,0,12.5-12.5"/></clipPath><clipPath id="clip-path-10"><path class="cls-1" d="M-212.53-13.56-224.34,7.15a14,14,0,0,0-.1,14.82,14.51,14.51,0,0,0,19.76,4.82,14.1,14.1,0,0,0,4.89-19.5Z"/></clipPath><clipPath id="clip-path-11"><path class="cls-1" d="M-81.06-42a10,10,0,0,0-3,.45A8.12,8.12,0,0,0-91.68-47a8.12,8.12,0,0,0-7.87,6.15A5.57,5.57,0,0,0-102.93-42a5.63,5.63,0,0,0-5.62,5.63,5.59,5.59,0,0,0,.42,2.13,6.22,6.22,0,0,0-1.67-.26,6.25,6.25,0,0,0-6.25,6.25A6.25,6.25,0,0,0-109.81-22h28.75a10,10,0,0,0,10-10,10,10,0,0,0-10-10"/></clipPath><clipPath id="clip-path-12"><path class="cls-1" d="M-101.06-15.8l-.14-4.28-3.59,2.14a2.46,2.46,0,0,0-1.3,2.25,2.54,2.54,0,0,0,2.6,2.44,2.47,2.47,0,0,0,2.43-2.55"/></clipPath><clipPath id="clip-path-13"><path class="cls-1" d="M-103.53-6.47l-.14-4.28-3.59,2.13a2.46,2.46,0,0,0-1.3,2.25A2.54,2.54,0,0,0-106-3.93a2.47,2.47,0,0,0,2.43-2.55"/></clipPath><clipPath id="clip-path-14"><path class="cls-1" d="M-109.78-12l-.14-4.28-3.59,2.14a2.46,2.46,0,0,0-1.3,2.25,2.54,2.54,0,0,0,2.59,2.44A2.47,2.47,0,0,0-109.78-12"/></clipPath><clipPath id="clip-path-15"><path class="cls-1" d="M-87.28-15.8l-.14-4.28L-91-17.94a2.45,2.45,0,0,0-1.3,2.25,2.54,2.54,0,0,0,2.59,2.44,2.47,2.47,0,0,0,2.43-2.55"/></clipPath><clipPath id="clip-path-16"><path class="cls-1" d="M-94.81-10.8l-.14-4.28-3.59,2.14a2.46,2.46,0,0,0-1.3,2.25,2.54,2.54,0,0,0,2.6,2.44,2.47,2.47,0,0,0,2.43-2.55"/></clipPath><clipPath id="clip-path-17"><path class="cls-1" d="M-88.53-5.22l-.14-4.28-3.59,2.13a2.45,2.45,0,0,0-1.3,2.25A2.54,2.54,0,0,0-91-2.68a2.47,2.47,0,0,0,2.43-2.55"/></clipPath><clipPath id="clip-path-18"><path class="cls-1" d="M-79.81-12l-.14-4.28-3.59,2.14a2.46,2.46,0,0,0-1.3,2.25,2.54,2.54,0,0,0,2.6,2.44A2.47,2.47,0,0,0-79.81-12"/></clipPath><clipPath id="clip-path-19"><path class="cls-1" d="M-98.66,104.83a.52.52,0,0,1-.32-.11.52.52,0,0,1-.14-.65l4.32-8h-6.35a.71.71,0,0,1-.7-.37,1,1,0,0,1,.06-.88l4.49-11.25c.1-.08,8.63.49,8.75.49a.52.52,0,0,1,.32.11.52.52,0,0,1,.14.65l-4.77,7.5h6.29a.52.52,0,0,1,.49.34.52.52,0,0,1-.15.58L-98.32,104.7a.52.52,0,0,1-.34.13"/></clipPath><clipPath id="clip-path-20"><path class="cls-1" d="M-81.05,64.83a10,10,0,0,0-3,.45,8.12,8.12,0,0,0-7.66-5.45A8.12,8.12,0,0,0-99.55,66a5.57,5.57,0,0,0-3.38-1.15,5.63,5.63,0,0,0-5.62,5.63,5.59,5.59,0,0,0,.42,2.13,6.22,6.22,0,0,0-1.67-.26,6.25,6.25,0,0,0-6.25,6.25,6.25,6.25,0,0,0,6.25,6.25h28.75a10,10,0,0,0,10-10,10,10,0,0,0-10-10"/></clipPath><clipPath id="clip-path-21"><path class="cls-1" d="M47.5,25A22.5,22.5,0,1,1,25,2.5,22.5,22.5,0,0,1,47.5,25"/></clipPath><clipPath id="clip-path-22"><rect class="cls-2" x="-99.5" y="-935.5" width="1440" height="2760"/></clipPath><clipPath id="clip-path-23"><path class="cls-1" d="M20,13.13a4.38,4.38,0,1,1-4.37-4.37A4.37,4.37,0,0,1,20,13.13"/></clipPath><clipPath id="clip-path-25"><path class="cls-1" d="M31.25,22.5a3.75,3.75,0,1,1-3.75-3.75,3.75,3.75,0,0,1,3.75,3.75"/></clipPath><clipPath id="clip-path-27"><path class="cls-1" d="M33.75,36.88a4.38,4.38,0,1,1-4.37-4.37,4.37,4.37,0,0,1,4.38,4.38"/></clipPath><clipPath id="clip-path-29"><path class="cls-1" d="M31.25,10a2.5,2.5,0,1,1-2.5-2.5,2.5,2.5,0,0,1,2.5,2.5"/></clipPath><clipPath id="clip-path-31"><path class="cls-1" d="M5,25a1.25,1.25,0,1,0,1.25-1.25A1.25,1.25,0,0,0,5,25"/></clipPath><clipPath id="clip-path-33"><path class="cls-1" d="M38.75,13.75A1.25,1.25,0,1,0,40,12.5a1.25,1.25,0,0,0-1.25,1.25"/></clipPath><clipPath id="clip-path-35"><path class="cls-1" d="M20,41.25A1.25,1.25,0,1,0,21.25,40,1.25,1.25,0,0,0,20,41.25"/></clipPath><clipPath id="clip-path-37"><path class="cls-1" d="M45,26.25a2.5,2.5,0,1,1-2.5-2.5,2.5,2.5,0,0,1,2.5,2.5"/></clipPath><clipPath id="clip-path-39"><path class="cls-1" d="M17.5,31.25a2.5,2.5,0,1,1-2.5-2.5,2.5,2.5,0,0,1,2.5,2.5"/></clipPath><clipPath id="clip-path-41"><rect class="cls-2" x="90.73" y="4.75" width="49.07" height="53"/></clipPath><clipPath id="clip-path-42"><path class="cls-1" d="M37.5,93.13a10,10,0,0,0-3,.45,8.12,8.12,0,0,0-15.54.7,5.61,5.61,0,0,0-8.58,6.6,6.22,6.22,0,0,0-1.67-.26,6.25,6.25,0,0,0,0,12.5H37.5a10,10,0,0,0,0-20"/></clipPath><clipPath id="clip-path-43"><path class="cls-1" d="M7.5,127.5a.63.63,0,0,1-1.25,0V120a.63.63,0,0,1,1.25,0Z"/></clipPath><clipPath id="clip-path-44"><path class="cls-1" d="M10.43,125.09a.62.62,0,1,1-.63,1.08l-6.5-3.75a.62.62,0,1,1,.63-1.08Z"/></clipPath><clipPath id="clip-path-45"><path class="cls-1" d="M3.31,125.09a.62.62,0,1,0,.63,1.08l6.49-3.75a.62.62,0,1,0-.63-1.08Z"/></clipPath><clipPath id="clip-path-46"><path class="cls-1" d="M20,132.5a.63.63,0,0,1-1.25,0V125A.63.63,0,0,1,20,125Z"/></clipPath><clipPath id="clip-path-47"><path class="cls-1" d="M22.93,130.09a.62.62,0,1,1-.62,1.08l-6.49-3.75a.62.62,0,1,1,.63-1.08Z"/></clipPath><clipPath id="clip-path-48"><path class="cls-1" d="M15.81,130.09a.62.62,0,1,0,.63,1.08l6.49-3.75a.62.62,0,1,0-.62-1.08Z"/></clipPath><clipPath id="clip-path-49"><path class="cls-1" d="M17.5,122.5a.63.63,0,0,1-1.25,0V115a.63.63,0,0,1,1.25,0Z"/></clipPath><clipPath id="clip-path-50"><path class="cls-1" d="M20.43,120.09a.62.62,0,1,1-.62,1.08l-6.49-3.75a.62.62,0,1,1,.63-1.08Z"/></clipPath><clipPath id="clip-path-51"><path class="cls-1" d="M13.31,120.09a.62.62,0,1,0,.63,1.08l6.49-3.75a.62.62,0,1,0-.62-1.08Z"/></clipPath><clipPath id="clip-path-52"><path class="cls-1" d="M30,123.75a.63.63,0,0,1-1.25,0v-7.5a.63.63,0,0,1,1.25,0Z"/></clipPath><clipPath id="clip-path-53"><path class="cls-1" d="M32.93,121.34a.62.62,0,1,1-.62,1.08l-6.49-3.75a.62.62,0,1,1,.63-1.08Z"/></clipPath><clipPath id="clip-path-54"><path class="cls-1" d="M25.81,121.34a.62.62,0,1,0,.63,1.08l6.49-3.75a.62.62,0,1,0-.62-1.08Z"/></clipPath><clipPath id="clip-path-55"><path class="cls-1" d="M42.5,122.5a.63.63,0,0,1-1.25,0V115a.63.63,0,0,1,1.25,0Z"/></clipPath><clipPath id="clip-path-56"><path class="cls-1" d="M45.43,120.09a.62.62,0,0,1-.62,1.08l-6.49-3.75a.62.62,0,1,1,.63-1.08Z"/></clipPath><clipPath id="clip-path-57"><path class="cls-1" d="M38.31,120.09a.62.62,0,1,0,.63,1.08l6.49-3.75a.62.62,0,0,0-.62-1.08Z"/></clipPath><clipPath id="clip-path-58"><path class="cls-1" d="M36.25,132.5a.63.63,0,0,1-1.25,0V125a.63.63,0,0,1,1.25,0Z"/></clipPath><clipPath id="clip-path-59"><path class="cls-1" d="M39.18,130.09a.62.62,0,0,1-.62,1.08l-6.5-3.75a.62.62,0,1,1,.63-1.08Z"/></clipPath><clipPath id="clip-path-60"><path class="cls-1" d="M32.06,130.09a.62.62,0,1,0,.63,1.08l6.49-3.75a.62.62,0,0,0-.62-1.08Z"/></clipPath><clipPath id="clip-path-61"><path class="cls-1" d="M140.57,158.78s4.48-7.24,3.33-13.85c-.89-5.13-4.23-6.17-7.55-10.73-3.91-5.37-4.3-9.33-3.12-11.25,1.41-2.29,6.67-5,18.44-5,7.55,0,11,2,12.13,4.27,1.41,2.76.57,12-2.76,18.33-5.49,10.46-11.56,17.45-17.19,19.9-4.44,1.93-3.28-1.67-3.28-1.67"/></clipPath><clipPath id="clip-path-62"><path class="cls-1" d="M133.23,122.95c-1.18,1.92-.78,5.88,3.13,11.25,3.32,4.56,6.66,5.6,7.55,10.73.67,3.85-.57,7.92-1.73,10.64h8.41a62.62,62.62,0,0,0,10.46-15c3.33-6.35,4.17-15.57,2.76-18.33l-7.45-2.62H138.54C135.59,120.56,133.93,121.8,133.23,122.95Z"/></clipPath><clipPath id="clip-path-63"><path class="cls-1" d="M161.22,162.95a2.57,2.57,0,0,0,0-.31,2.7,2.7,0,0,0-1.93-2.58,4.84,4.84,0,0,0-9-2,3.61,3.61,0,0,0-5.11,1.34,3.58,3.58,0,0,0-2.6-1.12,3.54,3.54,0,0,0-1,.17,3.4,3.4,0,0,0-1.46-.63,5.12,5.12,0,0,0-9.8.81,3.35,3.35,0,0,0-.39,0,3.09,3.09,0,0,0-2.82,4.37Z"/></clipPath></defs><title>weather</title><g class="cls-23"><g class="cls-24"><rect class="cls-25" x="-2.5" y="-2.5" width="55" height="55"/></g></g><g class="cls-26"><g class="cls-24"><rect class="cls-27" x="6.25" y="3.75" width="18.75" height="18.75"/></g></g><g class="cls-28"><g class="cls-24"><rect class="cls-27" x="18.75" y="13.75" width="17.5" height="17.5"/></g></g><g class="cls-29"><g class="cls-24"><rect class="cls-27" x="20" y="27.5" width="18.75" height="18.75"/></g></g><g class="cls-30"><g class="cls-24"><rect class="cls-27" x="21.25" y="2.5" width="15" height="15"/></g></g><g class="cls-31"><g class="cls-24"><rect class="cls-27" y="18.75" width="12.5" height="12.5"/></g></g><g class="cls-32"><g class="cls-24"><rect class="cls-27" x="33.75" y="7.5" width="12.5" height="12.5"/></g></g><g class="cls-33"><g class="cls-24"><rect class="cls-27" x="15" y="35" width="12.5" height="12.5"/></g></g><g class="cls-34"><g class="cls-24"><rect class="cls-27" x="35" y="18.75" width="15" height="15"/></g></g><g class="cls-35"><g class="cls-24"><rect class="cls-27" x="7.5" y="23.75" width="15" height="15"/></g></g></svg>